<?xml version="1.0" encoding="UTF-8"?>
<!DOCTYPE svg PUBLIC "-//W3C//DTD SVG 1.1//EN" "http://www.w3.org/Graphics/SVG/1.1/DTD/svg11.dtd">
<!-- Creator: CorelDRAW -->
<svg xmlns="http://www.w3.org/2000/svg" xml:space="preserve" width="95px" height="95px" style="shape-rendering:geometricPrecision; text-rendering:geometricPrecision; image-rendering:optimizeQuality; fill-rule:evenodd; clip-rule:evenodd"
viewBox="0 0 4.15102 4.15102"
 xmlns:xlink="http://www.w3.org/1999/xlink">
 <defs>
  <style type="text/css">
   <![CDATA[
    .fil1 {fill:#004CD2}
    .fil2 {fill:#FFD712}
    .fil0 {fill:#FEFEFE;fill-rule:nonzero}
   ]]>
  </style>
 </defs>
 <g id="Layer_x0020_1">
  <metadata id="CorelCorpID_0Corel-Layer"/>
  <g id="_368275240">
   <g id="_869527728">
    <path id="_282683176" class="fil0" d="M4.15102 2.07541c0,1.14642 -0.929353,2.07561 -2.07566,2.07561 -1.14611,0 -2.07535,-0.929198 -2.07535,-2.07561 0,-1.14616 0.929198,-2.07541 2.07535,-2.07541 1.14636,0 2.07566,0.929198 2.07566,2.07541z"/>
    <g>
     <path id="_294851960" class="fil1" d="M2.93277 1.9934c-0.0763795,-0.0381381 -0.219539,-0.038551 -0.225526,-0.038551 -0.0181143,0 -0.0327709,0.0146566 -0.0327709,0.0327709 0,0.0182175 0.0147082,0.0329258 0.0327709,0.0329258 0.0370028,0 0.144141,0.00567685 0.196058,0.0316356 0.00479952,0.00227074 0.00970226,0.00350933 0.0147082,0.00350933 0.0120246,0 0.023688,-0.0066574 0.0293648,-0.0181659 0.00815403,-0.0162048 0.00154823,-0.035919 -0.014605,-0.0441246l0 0z"/>
     <polygon id="_294855032" class="fil2" points="1.79688,2.40224 1.49399,2.54308 1.47588,2.89871 2.67442,2.89871 2.67442,2.56238 2.33572,2.36379 2.07561,2.56553 "/>
     <path id="_294855104" class="fil1" d="M3.09662 2.46143l-0.135625 -0.0389123c-0.00572846,-0.00149663 -0.0101151,-0.00722509 -0.0101151,-0.0130052l0 -0.0454664c0.0108376,-0.0079476 0.0217269,-0.0158436 0.0310163,-0.0260619 0.0484597,-0.0460857 0.0743152,-0.108118 0.0743152,-0.174537l0 -0.0627551 0.0129019 -0.0260619c0.0145018,-0.0287971 0.0224494,-0.0613616 0.0224494,-0.0929972l0 -0.169583c0,-0.0180111 -0.0151727,-0.0331838 -0.0331322,-0.0331838l-0.316098 0c-0.114724,0 -0.208495,0.0937713 -0.208495,0.208495l0 0.00221913c0,0.0266812 0.00660579,0.053414 0.0180627,0.0779277l0.0173402 0.033287 0 0.0540849c0,0.0851528 0.0418539,0.160965 0.105383,0.20705l0 0.0477372c0,0.00722509 0,0.0100119 -0.0274037,0.0180627l-0.0664192 0.018682 -0.191104 -0.0693092c0.000774117,-0.00944422 -0.00211592,-0.0187852 -0.00934101,-0.025391l-0.0605875 -0.0640969 0 -0.108273c0.00650258,-0.00495435 0.0121278,-0.010786 0.0187336,-0.0165145 0.0772052,-0.0721477 0.121227,-0.174641 0.121227,-0.280695l0 -0.0857721c0.0236364,-0.0504724 0.0354029,-0.104557 0.0354029,-0.160191l0 -0.35083c0,-0.0187336 -0.0145534,-0.0331838 -0.0325645,-0.0331838l-0.492183 0c-0.173144,0 -0.313775,0.140734 -0.313775,0.31393l0 0.070651c0,0.0548591 0.0115085,0.109047 0.0346288,0.15952l0 0.0743152c0,0.12262 0.0547558,0.233009 0.140734,0.305879l0 0.11106 -0.0613616 0.0641485c-0.00655419,0.00655419 -0.00934101,0.0159468 -0.00867011,0.0253394l-0.202251 0.0729218c-0.0149663,0.00567685 -0.0281262,0.0129019 -0.0410282,0.0216237l-0.0317388 -0.0159984c0.0944422,-0.0411314 0.124736,-0.0987257 0.126181,-0.101667 0.00438666,-0.00944422 0.00438666,-0.0201786 0,-0.0295713 -0.023688,-0.0476856 -0.0266812,-0.134232 -0.0287455,-0.204212 -0.000774117,-0.0231203 -0.00149663,-0.0447955 -0.00299325,-0.0642001 -0.0114053,-0.158023 -0.131239,-0.277082 -0.278424,-0.277082 -0.147908,0 -0.267638,0.119059 -0.27925,0.277082 -0.00149663,0.0194045 -0.00211592,0.0410798 -0.00289004,0.0642001 -0.00211592,0.0699801 -0.00500595,0.156526 -0.0288487,0.204212 -0.00423184,0.00939261 -0.00423184,0.020127 0,0.0295713 0.0013418,0.00294164 0.0317388,0.0606391 0.126336,0.101667l-0.0880945 0.044073c-0.0474792,0.0238944 -0.0764827,0.0707026 -0.0764827,0.123446l0 0.243124c0,0.0180627 0.0145534,0.0325129 0.0324613,0.0325129 0.0187852,0 0.0331838,-0.0144502 0.0331838,-0.0325129l0 -0.243124c0,-0.0274037 0.0152759,-0.051969 0.0405637,-0.0650774l0.109615 -0.0548075 0.038293 0.0368479c0.0266812,0.0251846 0.0606391,0.0374672 0.0952163,0.0374672 0.0339063,0 0.0684835,-0.0123343 0.0951131,-0.0374672l0.0383446 -0.0368479 0.0354029 0.0181659c-0.0166693,0.0266296 -0.0260103,0.0583684 -0.0260103,0.0915522l0 0.253343c0,0.0180627 0.0143986,0.0325129 0.0325645,0.0325129 0.0180111,0 0.0331322,-0.0144502 0.0331322,-0.0325129l0 -0.253343c0,-0.0446923 0.0281262,-0.0857721 0.0707026,-0.100945l0.212934 -0.0773084 0.0886105 0.132838c0.0116117,0.0172886 0.0296745,0.0281262 0.0498531,0.0302938l0.0073283 5.16078e-005c0.0179595,0 0.0353513,-0.0072767 0.0474792,-0.0201786l0.0541366 -0.0541366 0 0.342727c0,0.0180627 0.0151727,0.0325129 0.0331322,0.0325129 0.0181143,0 0.0325645,-0.0144502 0.0325645,-0.0325129l0 -0.342779 0.0540333 0.0541882c0.0132632,0.0129536 0.0304486,0.020127 0.0485629,0.020127l0.00650258 5.16078e-005c0.0209011,-0.00221913 0.0389639,-0.0130052 0.050524,-0.0302938l0.0886622 -0.132838 0.21283 0.0773084c0.0425764,0.0150695 0.0707543,0.0562525 0.0707543,0.100945l0 0.253291c0,0.0180627 0.0151211,0.0325129 0.0332354,0.0325129 0.0178563,0 0.0325129,-0.0144502 0.0325129,-0.0325129l0 -0.253291c0,-0.0453632 -0.0181143,-0.0880429 -0.0483565,-0.11973l0.00789599 -0.00289004c0.0079476,-0.00211592 0.0195593,-0.00505756 0.0308614,-0.010786l0.083811 0.0837078 0 0.303041c0,0.0180627 0.0144502,0.0325129 0.0325645,0.0325129 0.0180111,0 0.0331838,-0.0144502 0.0331838,-0.0325129l0 -0.303041 0.0828821 -0.0829853c0.00428345,0.00216753 0.00949583,0.00433505 0.0145018,0.00583168l0.135574 0.0382414c0.0310163,0.00939261 0.0527431,0.0374672 0.0527431,0.0699801l0 0.271973c0,0.0181143 0.0145534,0.0325645 0.0326161,0.0325645 0.0179079,0 0.0329774,-0.0144502 0.0329774,-0.0325645l0 -0.271973c-0.000309647,-0.0615165 -0.0413894,-0.116324 -0.100584,-0.13289l0 0zm-1.93219 -0.0584716c-0.0612584,-0.0216237 -0.0923779,-0.0512465 -0.10528,-0.0670901 0.0086185,-0.0237912 0.0145018,-0.050524 0.0187336,-0.0793728 0.0180627,0.0440214 0.0482533,0.0808178 0.0865462,0.107499l0 0.0389639 0 0zm0.188368 0.0894879c-0.0280746,0.0259071 -0.0722509,0.0259071 -0.100377,0l-0.0302422 -0.0296745c0.00495435,-0.00934101 0.00789599,-0.020127 0.00789599,-0.0317388l0 -0.0353513c0.0230687,0.0072767 0.0477372,0.0115601 0.0729734,0.0115601 0.0253394,0 0.049079,-0.00428345 0.0721993,-0.0115601l0 0.0353513c0,0.0116117 0.00289004,0.0223978 0.00784438,0.0317388l-0.0302938 0.0296745 0 0zm-0.0497499 -0.150798c-0.098158,0 -0.17815,-0.0800437 -0.17815,-0.178202 0,-0.0179595 -0.0147082,-0.0331838 -0.0325645,-0.0331838 -0.00211592,0 -0.00361254,0.000722509 -0.00583168,0.000722509l0 -0.00867011c0.000774117,-0.0223978 0.00149663,-0.0440214 0.00273521,-0.0620842 0.00459309,-0.0591425 0.0282811,-0.113227 0.0665224,-0.152914 0.0388607,-0.0404089 0.0916038,-0.0620842 0.147237,-0.0620842 0.0555816,0 0.107551,0.0216753 0.146411,0.0620842 0.0390671,0.039738 0.0620842,0.0937713 0.0664192,0.152914 0.00139341,0.0180627 0.00211592,0.0396864 0.00289004,0.0620842l0 0.00578007c-0.0354029,-0.0548075 -0.0909845,-0.0951647 -0.16241,-0.118388 -0.0654903,-0.0209011 -0.122568,-0.0194045 -0.124788,-0.0194045 -0.0086185,0 -0.0165661,0.00361254 -0.0222429,0.0100635l-0.0599682 0.0613616c-0.0122826,0.0129019 -0.0122826,0.0338547 0.0013418,0.046189 0.0129536,0.0129019 0.0333386,0.0121794 0.0462406,-0.000774117l0.049079 -0.0511949c0.0425764,0.00221913 0.179801,0.0180111 0.23239,0.134903 -0.0130568,0.0865978 -0.087372,0.150798 -0.175312,0.150798zm0.137793 0.06131l0 -0.0389639c0.0382414,-0.0260619 0.0684319,-0.0635292 0.0872687,-0.106776 0.00350933,0.0281262 0.00934101,0.0548075 0.0179595,0.0787019 -0.0129019,0.015792 -0.044073,0.0454148 -0.105228,0.0670385zm0.316665 -0.532386l0 -0.0815919c0,-0.00495435 -0.00139341,-0.0101151 -0.00356094,-0.0144502 -0.0209011,-0.0440214 -0.0317904,-0.0901588 -0.0317904,-0.137793l0 -0.070651c0,-0.137122 0.111008,-0.248182 0.248182,-0.248182l0.459 0 0 0.318833c0,0.0476856 -0.0108892,0.0937713 -0.0317388,0.137793 -0.00232235,0.00433505 -0.00376737,0.00939261 -0.00376737,0.0144502l0 0.0931004c0,0.0895395 -0.0352481,0.171751 -0.100222,0.232441 -0.00867011,0.00784438 -0.0166693,0.0151727 -0.0252878,0.021572 -0.000619293,0 -0.000619293,0 -0.000619293,0.000774117 -0.0606907,0.046189 -0.135728,0.0684835 -0.213759,0.063426 -0.166487,-0.010786 -0.296487,-0.155959 -0.296487,-0.329722l5.16078e-005 0zm0.184704 0.660838c0,0 -0.000774117,0.000619293 -0.00206431,0.000619293 -0.000774117,0 -0.00139341,-0.000619293 -0.00139341,-0.000619293l-0.102648 -0.153688 0.0331838 -0.0345772 0.155236 0.105951 -0.0823144 0.0823144zm0.133406 -0.127007l-0.178098 -0.121227 0 -0.0613616c0.0462406,0.0244621 0.0981064,0.0404089 0.152862,0.0440214 0.00872171,0 0.0166693,0.000774117 0.0252878,0.000774117 0.0627551,0 0.123446,-0.0151727 0.178253,-0.0432989l0 0.059865 -0.178305 0.121227 0 0zm0.137173 0.127007c-0.000619293,0 -0.000619293,0.000619293 -0.00206431,0.000619293 -0.000774117,0 -0.0013418,-0.000619293 -0.0013418,-0.000619293l-0.082366 -0.0823144 0.155081 -0.105951 0.0324097 0.0345772 -0.101719 0.153688 0 0zm0.599682 -0.0281778l-0.0743668 -0.0742636c0.00139341,-0.00583168 0.00211592,-0.0122826 0.00211592,-0.0195077l0 -0.0136761c0.0202302,0.00650258 0.042628,0.0107344 0.0649742,0.0107344 0.00211592,0.000774117 0.00500595,0.000774117 0.0073283,0.000774117 0.0250814,0 0.0496467,-0.00423184 0.072767,-0.0115085l0 0.0137277c0,0.00645097 0.000619293,0.0129536 0.00216753,0.018682l-0.0749861 0.0750377 0 0zm0.124013 -0.21216c-0.0346288,0.0339063 -0.0807662,0.0512981 -0.129226,0.0498015 -0.0952679,-0.00294164 -0.17237,-0.0866494 -0.17237,-0.186149l0 -0.0613616c0,-0.00583168 -0.00144502,-0.0109408 -0.00376737,-0.0151727l-0.0200238 -0.0404605c-0.0079476,-0.0151727 -0.0116117,-0.0317388 -0.0116117,-0.0483049l0 -0.00221913c0,-0.0786502 0.0641485,-0.142128 0.142747,-0.142128l0.283688 0 0 0.136399c0,0.0216237 -0.00583168,0.044073 -0.0150695,0.0635292l-0.0167209 0.0332354c-0.00211592,0.00423184 -0.00361254,0.00939261 -0.00361254,0.0152243l0 0.0699801c0.000103216,0.0483565 -0.0193529,0.0938229 -0.0540333,0.127678l0 -5.16078e-005z"/>
     <path id="_294855392" class="fil2" d="M2.02447 2.4491l-0.0822628 0.0823144c0,0 -0.000774117,0.000619293 -0.00206431,0.000619293 -0.000774117,0 -0.00139341,-0.000619293 -0.00139341,-0.000619293l-0.102648 -0.153688 0.0331838 -0.0345772 0.155185 0.105951z"/>
     <path id="_294855584" class="fil2" d="M2.3144 2.37772l-0.101719 0.153688c-0.000619293,0 -0.000619293,0.000619293 -0.0020127,0.000619293 -0.000774117,0 -0.00139341,-0.000619293 -0.00139341,-0.000619293l-0.0823144 -0.0823144 0.155081 -0.105951 0.0324097 0.0345772 -5.16078e-005 0z"/>
     <path id="_294855728" class="fil1" d="M3.02344 2.6224c-0.0181143,0 -0.0329258,0.0147082 -0.0329258,0.0328225l0 0.210818c0,0.0181143 0.0147598,0.0328742 0.0329258,0.0328742 0.0181659,0 0.0328225,-0.0147598 0.0328225,-0.0328742l0 -0.210818c-5.16078e-005,-0.0181143 -0.0147082,-0.0328225 -0.0328225,-0.0328225z"/>
     <path id="_294856112" class="fil1" d="M1.12701 2.6658c-0.0179595,0 -0.0327193,0.0146566 -0.0327193,0.0328225l0 0.167416c0,0.0181143 0.0146566,0.0328742 0.0327193,0.0328742 0.0181143,0 0.0329774,-0.0148114 0.0329774,-0.0328742l0 -0.167416c-5.16078e-005,-0.0181143 -0.014863,-0.0328225 -0.0329774,-0.0328225z"/>
     <path id="_294856496" class="fil1" d="M2.34485 1.6483c-0.124426,-0.124272 -0.384375,-0.100532 -0.490274,-0.0845851 -0.0333386,0.00505756 -0.0575943,0.033287 -0.0575943,0.0672449l0 0.075657c0,0.0181659 0.0146566,0.0328742 0.0327709,0.0328742 0.0182692,0 0.0329258,-0.0146566 0.0329258,-0.0328742l0 -0.075657c0,-0.00118698 0.000774117,-0.00211592 0.00170306,-0.00227074 0.04237,-0.00634776 0.126439,-0.0162564 0.21345,-0.0103732 0.102545,0.00670901 0.176757,0.0324613 0.22052,0.0763795 0.0127987,0.0128503 0.0335967,0.0128503 0.0465502,0 0.0129536,-0.0129019 0.0127987,-0.0335451 -5.16078e-005,-0.0463954l0 0z"/>
     <path id="_294856880" class="fil1" d="M1.68917 2.69258c-0.0180627,0 -0.0329258,0.0147082 -0.0329258,0.0328742l0 0.14058c0,0.0181143 0.0148114,0.0328742 0.0329258,0.0328742 0.0182175,0 0.0328742,-0.0148114 0.0328742,-0.0328742l0 -0.14058c0,-0.0181143 -0.0146566,-0.0328742 -0.0328742,-0.0328742z"/>
     <path id="_294857264" class="fil1" d="M2.4621 2.69258c-0.0181143,0 -0.0327709,0.0147082 -0.0327709,0.0328742l0 0.14058c0,0.0181143 0.0146566,0.0328742 0.0327709,0.0328742 0.0182692,0 0.0329258,-0.0148114 0.0329258,-0.0328742l0 -0.14058c0,-0.0181143 -0.0146566,-0.0328742 -0.0329258,-0.0328742z"/>
    </g>
   </g>
  </g>
 </g>
</svg>
