<?xml version="1.0" encoding="UTF-8"?>
<!DOCTYPE svg PUBLIC "-//W3C//DTD SVG 1.1//EN" "http://www.w3.org/Graphics/SVG/1.1/DTD/svg11.dtd">
<!-- Creator: CorelDRAW -->
<svg xmlns="http://www.w3.org/2000/svg" xml:space="preserve" width="95px" height="95px" style="shape-rendering:geometricPrecision; text-rendering:geometricPrecision; image-rendering:optimizeQuality; fill-rule:evenodd; clip-rule:evenodd"
viewBox="0 0 14.2272 14.2272"
 xmlns:xlink="http://www.w3.org/1999/xlink">
 <defs>
  <style type="text/css">
   <![CDATA[
    .fil0 {fill:#FEFEFE}
    .fil2 {fill:#004CD2}
    .fil1 {fill:#FFD712}
   ]]>
  </style>
 </defs>
 <g id="Layer_x0020_1">
  <metadata id="CorelCorpID_0Corel-Layer"/>
  <circle class="fil0" cx="7.11358" cy="7.11358" r="7.11367"/>
  <g id="_471559144">
   <circle id="_471559264" class="fil1" cx="7.10863" cy="5.1843" r="0.505712"/>
   <g>
    <g>
     <path id="_897719160" class="fil2" d="M7.19619 6.49696l0 -0.267095c0,-0.0456362 -0.0369688,-0.0824281 -0.082605,-0.0824281 -0.0456362,0 -0.0824281,0.036792 -0.0824281,0.0824281l0 0.267095c0,0.0456362 0.036792,0.0824281 0.0824281,0.0824281 0.0456362,0 0.082605,-0.036792 0.082605,-0.0824281z"/>
    </g>
    <g>
     <path id="_897719112" class="fil2" d="M6.3949 10.981l0 -1.27923c0,-0.0456362 -0.0369688,-0.0824281 -0.082605,-0.0824281 -0.0454593,0 -0.0824281,0.0369688 -0.0824281,0.0824281l0.000176884 1.27923c0,0.0219337 0.00866733,0.0426291 0.0240563,0.0583718 0.0155658,0.0153889 0.0362613,0.0240563 0.0583718,0.0240563 0.0454593,0 0.0824281,-0.0369688 0.0824281,-0.0824281z"/>
    </g>
    <g>
     <path id="_897714480" class="fil2" d="M7.07697 10.4572l0 1.27905c0,0.0456362 0.036792,0.0824281 0.0824281,0.0824281 0.0456362,0 0.0824281,-0.036792 0.0824281,-0.0824281l0.000176884 -1.27905c0,-0.0456362 -0.0369688,-0.082605 -0.082605,-0.082605 -0.0454593,0 -0.0824281,0.0371457 -0.0824281,0.082605z"/>
    </g>
    <g>
     <path id="_897719376" class="fil2" d="M7.83226 9.70175l0 1.27923c0,0.0454593 0.0369688,0.0824281 0.0824281,0.0824281 0.0456362,0 0.082605,-0.036792 0.082605,-0.0824281l0 -1.27923c0,-0.0456362 -0.036792,-0.0824281 -0.0824281,-0.0824281 -0.0456362,0 -0.082605,0.036792 -0.082605,0.0824281z"/>
    </g>
    <g>
     <path id="_897713784" class="fil2" d="M5.86071 9.43466l0.000176884 -0.534014c0,-0.0456362 -0.0369688,-0.082605 -0.082605,-0.082605 -0.0454593,0 -0.0824281,0.0371457 -0.0824281,0.082605l0 0.534014c0,0.0456362 0.036792,0.082605 0.0824281,0.082605 0.0456362,0 0.0824281,-0.0369688 0.0824281,-0.082605z"/>
    </g>
    <g>
     <path id="_897719496" class="fil2" d="M8.53149 9.43466l-0.000176884 -0.534014c0,-0.0456362 -0.036792,-0.082605 -0.0824281,-0.082605 -0.0456362,0 -0.082605,0.0369688 -0.082605,0.082605l0.000176884 0.534014c0,0.0452824 0.0371457,0.082605 0.0824281,0.082605 0.0456362,0 0.082605,-0.0369688 0.082605,-0.082605z"/>
    </g>
    <g>
     <path id="_897712560" class="fil2" d="M5.54285 8.44251c0.00990553,-0.00406834 0.0189266,-0.0100824 0.0265327,-0.0176884 0.0152121,-0.0153889 0.02441,-0.0366151 0.02441,-0.0585487 0,-0.277178 0.13284,-0.540205 0.352177,-0.708245l0.013797 -0.0104362 0.117805 0 0.0127357 0.0318392c0.0852583,0.209077 0.184314,0.413556 0.299288,0.607952 0.0350231,0.0590794 0.0891497,0.104362 0.151767,0.131602l0.0442211 0.0192804 -0.0166271 0.0452824c-0.0488201,0.132486 -0.0719919,0.27594 -0.0719919,0.417093 0,0.356422 0.328828,0.858066 0.553825,1.12162 0.0157427,0.0182191 0.0387377,0.029009 0.062794,0.029009 0.0212261,0 0.042806,-0.0079598 0.0620864,-0.0281246 0.225528,-0.274701 0.554533,-0.75565 0.554533,-1.12251 0,-0.140977 -0.0231719,-0.284607 -0.0719919,-0.416916l-0.0166271 -0.0452824 0.0440442 -0.0192804c0.0631477,-0.0274171 0.116921,-0.0725226 0.151944,-0.131779 0.115152,-0.194396 0.21403,-0.399051 0.299465,-0.607952l0.0129126 -0.0318392 0.117628 0 0.0139739 0.0106131c0.218806,0.168394 0.351469,0.430713 0.351823,0.708068 0,0.0334311 0.0201648,0.0635015 0.0511196,0.0762372 0.0307779,0.0129126 0.0663316,0.00583718 0.0898573,-0.0178653 0.372872,-0.372872 0.651111,-1.09951 0.493861,-1.61973 -0.104716,-0.346163 -0.37411,-0.54728 -0.716559,-0.635899l-0.0415678 -0.0109668 0.00353769 -0.042806c0.0116744,-0.139385 0.0178653,-0.279477 0.0178653,-0.419393 0,-0.663493 -0.182368,-1.30948 -0.466975,-1.90504 -0.201825,-0.422223 -0.558601,-1.01302 -0.892205,-1.35776l-0.00123819 -0.00106131c-0.0150352,-0.0152121 -0.0359075,-0.0235256 -0.0574874,-0.0235256 -0.0217568,0 -0.0426291,0.00849045 -0.0608482,0.0270633 -0.331128,0.341918 -0.688257,0.933065 -0.890082,1.35529 -0.284607,0.59557 -0.466975,1.24155 -0.466975,1.90504 0,0.139916 0.00619095,0.280008 0.0178653,0.419393l0.00353769 0.042806 -0.0415678 0.0109668c-0.342448,0.0886191 -0.611843,0.289737 -0.716559,0.635899 -0.15725,0.520217 0.120989,1.24703 0.493861,1.61973 0.0235256,0.0237025 0.0590794,0.0307779 0.0900341,0.0178653zm1.5297 1.34184c-0.164149,-0.220221 -0.410549,-0.604768 -0.410549,-0.883714 0,-0.143099 0.0270633,-0.291682 0.0875578,-0.422223l0.0136201 -0.0295397 0.700816 0 0.0136201 0.0295397c0.0604945,0.130541 0.0875578,0.279124 0.0875578,0.422223 0,0.278947 -0.2464,0.663493 -0.410549,0.883714l-0.0410372 0.0548342 -0.0410372 -0.0548342zm0.623164 -1.58117c-0.0316623,0.0534191 -0.0926874,0.0806593 -0.153182,0.0806593 -0.12718,0 -0.25436,0 -0.38154,0 0,0 -0.247107,0 -0.476173,0 -0.0606713,0 -0.12152,-0.0272402 -0.153359,-0.0806593 -0.0919799,-0.155835 -0.173347,-0.318215 -0.245516,-0.484309l-0.0309548 -0.0712844 1.71719 0 -0.0309548 0.0712844c-0.0721688,0.166094 -0.153536,0.328474 -0.245516,0.484309zm1.41454 -1.35069c0.117982,0.389499 -0.0481126,0.892028 -0.26515,1.22227l-0.0597869 0.0905648 -0.0316623 -0.103831c-0.0633246,-0.207308 -0.231719,-0.4553 -0.418508,-0.567091 -0.0288322,-0.0171578 -0.039799,-0.00672161 -0.064209,-0.013797l-0.052004 -0.0148583 0.0176884 -0.0509427c0.116567,-0.335196 0.199702,-0.681889 0.247461,-1.03336l0.00813668 -0.0589025 0.0567799 0.0166271c0.269572,0.0790673 0.478118,0.238971 0.561254,0.513318zm-1.25199 -3.10874l-1.48937 0 0.0394452 -0.0746452c0.185198,-0.352 0.412671,-0.698693 0.665793,-1.00594l0.0394452 -0.0477588 0.0394452 0.0477588c0.253122,0.307425 0.480772,0.653765 0.665793,1.00594l0.0394452 0.0746452zm-1.99756 1.9521c0,-0.610074 0.161849,-1.20582 0.415325,-1.75735l0.0136201 -0.0297166 1.64803 0 0.0136201 0.0297166c0.253298,0.551525 0.415148,1.14745 0.415148,1.75735 0,0.174231 -0.00955176,0.348639 -0.0281246,0.521986 -0.0452824,0.420454 -0.143276,0.834717 -0.289206,1.23165l-0.012205 0.0332543 -1.84667 0 -0.012205 -0.0332543c-0.14593,-0.396929 -0.24357,-0.811192 -0.289029,-1.23165 -0.0187497,-0.173347 -0.0283015,-0.347755 -0.0283015,-0.521986zm-0.743799 1.15665c0.0831357,-0.274348 0.291682,-0.434251 0.561254,-0.513318l0.0567799 -0.0166271 0.00813668 0.0589025c0.0477588,0.351646 0.130894,0.698163 0.247461,1.03354l0.0194573 0.0564261 -0.0587256 0.0106131c-0.0245869,0.00442211 -0.0341387,-0.00353769 -0.0608482,0.0134432 -0.188736,0.119043 -0.352707,0.356422 -0.416916,0.56603l-0.0316623 0.103831 -0.0597869 -0.0905648c-0.217037,-0.330243 -0.382955,-0.832772 -0.26515,-1.22227z"/>
    </g>
    <g>
     <path id="_471544888" class="fil2" d="M7.11358 5.77828c0.340149,0 0.616619,-0.276647 0.616619,-0.616619 0,-0.340679 -0.27594,-0.616619 -0.616619,-0.616619 -0.340856,0 -0.616619,0.275586 -0.616619,0.616619 0,0.339972 0.27647,0.616619 0.616619,0.616619zm-0.451586 -0.616619c0,-0.249761 0.202002,-0.451763 0.451586,-0.451763 0.249584,0 0.451586,0.202002 0.451586,0.451763 0,0.248876 -0.202533,0.451763 -0.451586,0.451763 -0.249053,0 -0.451586,-0.202886 -0.451586,-0.451763z"/>
    </g>
    <g>
     <path id="_462150744" class="fil2" d="M7.19619 7.03098c0,-0.0454593 -0.0369688,-0.0824281 -0.0824281,-0.0824281 -0.0458131,0 -0.082605,0.036792 -0.082605,0.082605 0,0.0454593 0.0369688,0.0824281 0.0824281,0.0824281 0.0456362,0 0.082605,-0.0369688 0.082605,-0.082605z"/>
    </g>
   </g>
  </g>
 </g>
</svg>
