<?xml version="1.0" encoding="UTF-8"?>
<!DOCTYPE svg PUBLIC "-//W3C//DTD SVG 1.1//EN" "http://www.w3.org/Graphics/SVG/1.1/DTD/svg11.dtd">
<!-- Creator: CorelDRAW -->
<svg xmlns="http://www.w3.org/2000/svg" xml:space="preserve" width="95px" height="95px" style="shape-rendering:geometricPrecision; text-rendering:geometricPrecision; image-rendering:optimizeQuality; fill-rule:evenodd; clip-rule:evenodd"
viewBox="0 0 22.9719 22.9719"
 xmlns:xlink="http://www.w3.org/1999/xlink">
 <defs>
  <style type="text/css">
   <![CDATA[
    .str0 {stroke:#004CD2;stroke-width:0.217632}
    .str1 {stroke:#004CD2;stroke-width:0.321307;stroke-linecap:round;stroke-linejoin:round}
    .fil2 {fill:none}
    .fil1 {fill:none;fill-rule:nonzero}
    .fil0 {fill:#FEFEFE}
    .fil4 {fill:#FFD712}
    .fil3 {fill:#004CD2;fill-rule:nonzero}
   ]]>
  </style>
 </defs>
 <g id="Layer_x0020_1">
  <metadata id="CorelCorpID_0Corel-Layer"/>
  <g id="_164327264">
   <circle id="_471551488" class="fil0" cx="11.4859" cy="11.4859" r="11.4861"/>
   <g>
    <g>
     <polygon id="_471549760" class="fil1 str0" points="5.75039,7.7225 17.3283,7.7225 17.3283,15.908 5.75039,15.908 "/>
    </g>
    <line id="_471549616" class="fil2 str1" x1="7.19756" y1="8.60902" x2="10.1879" y2= "8.60902" />
    <line id="_471549784" class="fil2 str1" x1="7.19756" y1="9.46984" x2="10.1879" y2= "9.46984" />
    <line id="_471545704" class="fil2 str1" x1="7.19756" y1="10.3309" x2="10.1879" y2= "10.3309" />
    <line id="_471551320" class="fil2 str1" x1="7.19756" y1="11.1918" x2="10.1879" y2= "11.1918" />
    <g>
     <path id="_471551728" class="fil3" d="M7.49202 13.5049l-0.906228 0 0 -0.321592 0.906228 0 0.159939 0.160796 -0.159939 0.160796zm0 0l0 -0.321592 0.00828258 0.000285606 0.00799697 0.000571212 0.00799697 0.00114242 0.00799697 0.00114242 0.00771136 0.00199924 0.00742576 0.00199924 0.00742576 0.00257045 0.00742576 0.00285606 0.00714015 0.00342727 0.00685455 0.00342727 0.00656894 0.00399848 0.00656894 0.00399848 0.00628333 0.0045697 0.00599773 0.0048553 0.00571212 0.00514091 0.00571212 0.00514091 0.00514091 0.00571212 0.00514091 0.00571212 0.0048553 0.00628333 0.00428409 0.00628333 0.00428409 0.00628333 0.00371288 0.00685455 0.00371288 0.00685455 0.00314167 0.00714015 0.00285606 0.00742576 0.00257045 0.00742576 0.00199924 0.00771136 0.00199924 0.00771136 0.00142803 0.00771136 0.000856818 0.00828258 0.000571212 0.00799697 0.000285606 0.00828258 -0.000285606 0.00828258 -0.000571212 0.00799697 -0.000856818 0.00828258 -0.00142803 0.00771136 -0.00199924 0.00771136 -0.00199924 0.00771136 -0.00257045 0.00742576 -0.00285606 0.00742576 -0.00314167 0.00714015 -0.00371288 0.00685455 -0.00371288 0.00685455 -0.00428409 0.00628333 -0.00428409 0.00628333 -0.0048553 0.00628333 -0.00514091 0.00571212 -0.00514091 0.00571212 -0.00571212 0.00514091 -0.00571212 0.00514091 -0.00599773 0.0048553 -0.00628333 0.0045697 -0.00656894 0.00399848 -0.00656894 0.00399848 -0.00685455 0.00342727 -0.00714015 0.00342727 -0.00742576 0.00285606 -0.00742576 0.00257045 -0.00742576 0.00199924 -0.00771136 0.00199924 -0.00799697 0.00114242 -0.00799697 0.00114242 -0.00799697 0.000571212 -0.00828258 0.000285606zm-0.159939 1.51571l0 -1.67651 0.319879 0 0 1.67651 -0.159939 0.160796 -0.159939 -0.160796zm0 0l0.319879 0 -0.000285606 0.00828258 -0.000571212 0.00799697 -0.000856818 0.00828258 -0.00142803 0.00771136 -0.00199924 0.00771136 -0.00199924 0.00771136 -0.00257045 0.00742576 -0.00285606 0.00742576 -0.00314167 0.00714015 -0.00371288 0.00685455 -0.00371288 0.00685455 -0.00428409 0.00628333 -0.00428409 0.00628333 -0.0048553 0.00628333 -0.00514091 0.00571212 -0.00514091 0.00571212 -0.00571212 0.00514091 -0.00571212 0.00514091 -0.00599773 0.0048553 -0.00628333 0.0045697 -0.00656894 0.00399848 -0.00656894 0.00399848 -0.00685455 0.00342727 -0.00714015 0.00342727 -0.00742576 0.00285606 -0.00742576 0.00257045 -0.00742576 0.00199924 -0.00771136 0.00199924 -0.00799697 0.00114242 -0.00799697 0.00114242 -0.00799697 0.000571212 -0.00828258 0.000285606 -0.00828258 -0.000285606 -0.00799697 -0.000571212 -0.00799697 -0.00114242 -0.00799697 -0.00114242 -0.00771136 -0.00199924 -0.00742576 -0.00199924 -0.00742576 -0.00257045 -0.00742576 -0.00285606 -0.00714015 -0.00342727 -0.00685455 -0.00342727 -0.00656894 -0.00399848 -0.00656894 -0.00399848 -0.00628333 -0.0045697 -0.00599773 -0.0048553 -0.00571212 -0.00514091 -0.00571212 -0.00514091 -0.00514091 -0.00571212 -0.00514091 -0.00571212 -0.0048553 -0.00628333 -0.00428409 -0.00628333 -0.00428409 -0.00628333 -0.00371288 -0.00685455 -0.00371288 -0.00685455 -0.00314167 -0.00714015 -0.00285606 -0.00742576 -0.00257045 -0.00742576 -0.00199924 -0.00771136 -0.00199924 -0.00771136 -0.00142803 -0.00771136 -0.000856818 -0.00828258 -0.000571212 -0.00799697 -0.000285606 -0.00828258zm-0.746289 -0.160796l0.906228 0 0 0.321592 -0.906228 0 -0.159939 -0.160796 0.159939 -0.160796zm0 0l0 0.321592 -0.00828258 -0.000285606 -0.00799697 -0.000571212 -0.00799697 -0.00114242 -0.00799697 -0.00114242 -0.00771136 -0.00199924 -0.00742576 -0.00199924 -0.00742576 -0.00257045 -0.00742576 -0.00285606 -0.00714015 -0.00342727 -0.00685455 -0.00342727 -0.00656894 -0.00399848 -0.00656894 -0.00399848 -0.00628333 -0.0045697 -0.00599773 -0.0048553 -0.00571212 -0.00514091 -0.00571212 -0.00514091 -0.00514091 -0.00571212 -0.00514091 -0.00571212 -0.0048553 -0.00628333 -0.00428409 -0.00628333 -0.00428409 -0.00628333 -0.00371288 -0.00685455 -0.00371288 -0.00685455 -0.00314167 -0.00714015 -0.00285606 -0.00742576 -0.00257045 -0.00742576 -0.00199924 -0.00771136 -0.00199924 -0.00771136 -0.00142803 -0.00771136 -0.000856818 -0.00828258 -0.000571212 -0.00799697 -0.000285606 -0.00828258 0.000285606 -0.00828258 0.000571212 -0.00799697 0.000856818 -0.00828258 0.00142803 -0.00771136 0.00199924 -0.00771136 0.00199924 -0.00771136 0.00257045 -0.00742576 0.00285606 -0.00742576 0.00314167 -0.00714015 0.00371288 -0.00685455 0.00371288 -0.00685455 0.00428409 -0.00628333 0.00428409 -0.00628333 0.0048553 -0.00628333 0.00514091 -0.00571212 0.00514091 -0.00571212 0.00571212 -0.00514091 0.00571212 -0.00514091 0.00599773 -0.0048553 0.00628333 -0.0045697 0.00656894 -0.00399848 0.00656894 -0.00399848 0.00685455 -0.00342727 0.00714015 -0.00342727 0.00742576 -0.00285606 0.00742576 -0.00257045 0.00742576 -0.00199924 0.00771136 -0.00199924 0.00799697 -0.00114242 0.00799697 -0.00114242 0.00799697 -0.000571212 0.00828258 -0.000285606zm0.159939 -1.51571l0 1.67651 -0.319879 0 0 -1.67651 0.159939 -0.160796 0.159939 0.160796zm0 0l-0.319879 0 0.000285606 -0.00828258 0.000571212 -0.00799697 0.000856818 -0.00828258 0.00142803 -0.00771136 0.00199924 -0.00771136 0.00199924 -0.00771136 0.00257045 -0.00742576 0.00285606 -0.00742576 0.00314167 -0.00714015 0.00371288 -0.00685455 0.00371288 -0.00685455 0.00428409 -0.00628333 0.00428409 -0.00628333 0.0048553 -0.00628333 0.00514091 -0.00571212 0.00514091 -0.00571212 0.00571212 -0.00514091 0.00571212 -0.00514091 0.00599773 -0.0048553 0.00628333 -0.0045697 0.00656894 -0.00399848 0.00656894 -0.00399848 0.00685455 -0.00342727 0.00714015 -0.00342727 0.00742576 -0.00285606 0.00742576 -0.00257045 0.00742576 -0.00199924 0.00771136 -0.00199924 0.00799697 -0.00114242 0.00799697 -0.00114242 0.00799697 -0.000571212 0.00828258 -0.000285606 0.00828258 0.000285606 0.00799697 0.000571212 0.00799697 0.00114242 0.00799697 0.00114242 0.00771136 0.00199924 0.00742576 0.00199924 0.00742576 0.00257045 0.00742576 0.00285606 0.00714015 0.00342727 0.00685455 0.00342727 0.00656894 0.00399848 0.00656894 0.00399848 0.00628333 0.0045697 0.00599773 0.0048553 0.00571212 0.00514091 0.00571212 0.00514091 0.00514091 0.00571212 0.00514091 0.00571212 0.0048553 0.00628333 0.00428409 0.00628333 0.00428409 0.00628333 0.00371288 0.00685455 0.00371288 0.00685455 0.00314167 0.00714015 0.00285606 0.00742576 0.00257045 0.00742576 0.00199924 0.00771136 0.00199924 0.00771136 0.00142803 0.00771136 0.000856818 0.00828258 0.000571212 0.00799697 0.000285606 0.00828258z"/>
    </g>
    <g>
     <path class="fil3" d="M9.19109 13.8445l-0.906228 0 0 -0.321592 0.906228 0 0.161367 0.160796 -0.161367 0.160796zm0 0l0 -0.321592 0.00828258 0.000285606 0.00828258 0.000571212 0.00799697 0.00114242 0.00799697 0.00114242 0.00771136 0.00199924 0.00771136 0.00199924 0.00742576 0.00257045 0.00742576 0.00285606 0.00714015 0.00342727 0.00685455 0.00342727 0.00685455 0.00399848 0.00656894 0.00399848 0.00628333 0.0045697 0.00599773 0.0048553 0.00599773 0.00514091 0.00542652 0.00514091 0.00542652 0.00571212 0.00514091 0.00571212 0.0048553 0.00628333 0.00428409 0.00628333 0.00428409 0.00628333 0.00399848 0.00685455 0.00342727 0.00685455 0.00342727 0.00714015 0.00285606 0.00742576 0.00257045 0.00742576 0.00199924 0.00771136 0.00199924 0.00771136 0.00114242 0.00771136 0.00114242 0.00828258 0.000571212 0.00799697 0.000285606 0.00828258 -0.000285606 0.00828258 -0.000571212 0.00799697 -0.00114242 0.00828258 -0.00114242 0.00771136 -0.00199924 0.00771136 -0.00199924 0.00771136 -0.00257045 0.00742576 -0.00285606 0.00742576 -0.00342727 0.00714015 -0.00342727 0.00685455 -0.00399848 0.00685455 -0.00428409 0.00628333 -0.00428409 0.00628333 -0.0048553 0.00628333 -0.00514091 0.00571212 -0.00542652 0.00571212 -0.00542652 0.00514091 -0.00599773 0.00514091 -0.00599773 0.0048553 -0.00628333 0.0045697 -0.00656894 0.00399848 -0.00685455 0.00399848 -0.00685455 0.00342727 -0.00714015 0.00342727 -0.00742576 0.00285606 -0.00742576 0.00257045 -0.00771136 0.00199924 -0.00771136 0.00199924 -0.00799697 0.00114242 -0.00799697 0.00114242 -0.00828258 0.000571212 -0.00828258 0.000285606zm-0.161367 1.17613l0 -1.33692 0.322735 0 0 1.33692 -0.161367 0.160796 -0.161367 -0.160796zm0 0l0.322735 0 -0.000285606 0.00828258 -0.000571212 0.00799697 -0.00114242 0.00828258 -0.00114242 0.00771136 -0.00199924 0.00771136 -0.00199924 0.00771136 -0.00257045 0.00742576 -0.00285606 0.00742576 -0.00342727 0.00714015 -0.00342727 0.00685455 -0.00399848 0.00685455 -0.00428409 0.00628333 -0.00428409 0.00628333 -0.0048553 0.00628333 -0.00514091 0.00571212 -0.00542652 0.00571212 -0.00542652 0.00514091 -0.00599773 0.00514091 -0.00599773 0.0048553 -0.00628333 0.0045697 -0.00656894 0.00399848 -0.00685455 0.00399848 -0.00685455 0.00342727 -0.00714015 0.00342727 -0.00742576 0.00285606 -0.00742576 0.00257045 -0.00771136 0.00199924 -0.00771136 0.00199924 -0.00799697 0.00114242 -0.00799697 0.00114242 -0.00828258 0.000571212 -0.00828258 0.000285606 -0.00828258 -0.000285606 -0.00828258 -0.000571212 -0.00799697 -0.00114242 -0.00799697 -0.00114242 -0.00771136 -0.00199924 -0.00771136 -0.00199924 -0.00742576 -0.00257045 -0.00742576 -0.00285606 -0.00714015 -0.00342727 -0.00685455 -0.00342727 -0.00685455 -0.00399848 -0.00656894 -0.00399848 -0.00628333 -0.0045697 -0.00599773 -0.0048553 -0.00599773 -0.00514091 -0.00571212 -0.00514091 -0.00514091 -0.00571212 -0.00514091 -0.00571212 -0.0048553 -0.00628333 -0.00428409 -0.00628333 -0.00428409 -0.00628333 -0.00399848 -0.00685455 -0.00342727 -0.00685455 -0.00342727 -0.00714015 -0.00285606 -0.00742576 -0.00257045 -0.00742576 -0.00199924 -0.00771136 -0.00199924 -0.00771136 -0.00114242 -0.00771136 -0.00114242 -0.00828258 -0.000571212 -0.00799697 -0.000285606 -0.00828258zm-0.744861 -0.160796l0.906228 0 0 0.321592 -0.906228 0 -0.161367 -0.160796 0.161367 -0.160796zm0 0l0 0.321592 -0.00828258 -0.000285606 -0.00828258 -0.000571212 -0.00799697 -0.00114242 -0.00799697 -0.00114242 -0.00771136 -0.00199924 -0.00771136 -0.00199924 -0.00742576 -0.00257045 -0.00742576 -0.00285606 -0.00714015 -0.00342727 -0.00685455 -0.00342727 -0.00685455 -0.00399848 -0.00656894 -0.00399848 -0.00628333 -0.0045697 -0.00599773 -0.0048553 -0.00599773 -0.00514091 -0.00571212 -0.00514091 -0.00514091 -0.00571212 -0.00514091 -0.00571212 -0.0048553 -0.00628333 -0.00428409 -0.00628333 -0.00428409 -0.00628333 -0.00399848 -0.00685455 -0.00342727 -0.00685455 -0.00342727 -0.00714015 -0.00285606 -0.00742576 -0.00257045 -0.00742576 -0.00199924 -0.00771136 -0.00199924 -0.00771136 -0.00114242 -0.00771136 -0.00114242 -0.00828258 -0.000571212 -0.00799697 -0.000285606 -0.00828258 0.000285606 -0.00828258 0.000571212 -0.00799697 0.00114242 -0.00828258 0.00114242 -0.00771136 0.00199924 -0.00771136 0.00199924 -0.00771136 0.00257045 -0.00742576 0.00285606 -0.00742576 0.00342727 -0.00714015 0.00342727 -0.00685455 0.00399848 -0.00685455 0.00428409 -0.00628333 0.00428409 -0.00628333 0.0048553 -0.00628333 0.00514091 -0.00571212 0.00514091 -0.00571212 0.00571212 -0.00514091 0.00599773 -0.00514091 0.00599773 -0.0048553 0.00628333 -0.0045697 0.00656894 -0.00399848 0.00685455 -0.00399848 0.00685455 -0.00342727 0.00714015 -0.00342727 0.00742576 -0.00285606 0.00742576 -0.00257045 0.00771136 -0.00199924 0.00771136 -0.00199924 0.00799697 -0.00114242 0.00799697 -0.00114242 0.00828258 -0.000571212 0.00828258 -0.000285606zm0.161367 -1.17613l0 1.33692 -0.322735 0 0 -1.33692 0.161367 -0.160796 0.161367 0.160796zm0 0l-0.322735 0 0.000285606 -0.00828258 0.000571212 -0.00799697 0.00114242 -0.00828258 0.00114242 -0.00771136 0.00199924 -0.00771136 0.00199924 -0.00771136 0.00257045 -0.00742576 0.00285606 -0.00742576 0.00342727 -0.00714015 0.00342727 -0.00685455 0.00399848 -0.00685455 0.00428409 -0.00628333 0.00428409 -0.00628333 0.0048553 -0.00628333 0.00514091 -0.00571212 0.00514091 -0.00571212 0.00571212 -0.00514091 0.00599773 -0.00514091 0.00599773 -0.0048553 0.00628333 -0.0045697 0.00656894 -0.00399848 0.00685455 -0.00399848 0.00685455 -0.00342727 0.00714015 -0.00342727 0.00742576 -0.00285606 0.00742576 -0.00257045 0.00771136 -0.00199924 0.00771136 -0.00199924 0.00799697 -0.00114242 0.00799697 -0.00114242 0.00828258 -0.000571212 0.00828258 -0.000285606 0.00828258 0.000285606 0.00828258 0.000571212 0.00799697 0.00114242 0.00799697 0.00114242 0.00771136 0.00199924 0.00771136 0.00199924 0.00742576 0.00257045 0.00742576 0.00285606 0.00714015 0.00342727 0.00685455 0.00342727 0.00685455 0.00399848 0.00656894 0.00399848 0.00628333 0.0045697 0.00599773 0.0048553 0.00599773 0.00514091 0.00542652 0.00514091 0.00542652 0.00571212 0.00514091 0.00571212 0.0048553 0.00628333 0.00428409 0.00628333 0.00428409 0.00628333 0.00399848 0.00685455 0.00342727 0.00685455 0.00342727 0.00714015 0.00285606 0.00742576 0.00257045 0.00742576 0.00199924 0.00771136 0.00199924 0.00771136 0.00114242 0.00771136 0.00114242 0.00828258 0.000571212 0.00799697 0.000285606 0.00828258z"/>
    </g>
    <g>
     <path class="fil3" d="M10.8676 12.1902l-0.906228 0 0 -0.32045 0.906228 0 0.159083 0.160225 -0.159083 0.160225zm0 0l0 -0.32045 0.00828258 0.000285606 0.00799697 0.000571212 0.00799697 0.000856818 0.00771136 0.00142803 0.00771136 0.00199924 0.00742576 0.00199924 0.00742576 0.00257045 0.00742576 0.00285606 0.00685455 0.00314167 0.00685455 0.00371288 0.00685455 0.00371288 0.00628333 0.00428409 0.00628333 0.0045697 0.00599773 0.0045697 0.00571212 0.00514091 0.00571212 0.00542652 0.00514091 0.00542652 0.00514091 0.00571212 0.0045697 0.00628333 0.0045697 0.00628333 0.00399848 0.00628333 0.00399848 0.00685455 0.00342727 0.00685455 0.00314167 0.00714015 0.00285606 0.00714015 0.00257045 0.00742576 0.00199924 0.00771136 0.00199924 0.00771136 0.00142803 0.00799697 0.000856818 0.00799697 0.000571212 0.00799697 0.000285606 0.00828258 -0.000285606 0.00828258 -0.000571212 0.00799697 -0.000856818 0.00799697 -0.00142803 0.00799697 -0.00199924 0.00771136 -0.00199924 0.00771136 -0.00257045 0.00742576 -0.00285606 0.00714015 -0.00314167 0.00714015 -0.00342727 0.00685455 -0.00399848 0.00685455 -0.00399848 0.00628333 -0.0045697 0.00628333 -0.0045697 0.00628333 -0.00514091 0.00571212 -0.00514091 0.00542652 -0.00571212 0.00542652 -0.00571212 0.00514091 -0.00599773 0.0045697 -0.00628333 0.0045697 -0.00628333 0.00428409 -0.00685455 0.00371288 -0.00685455 0.00371288 -0.00685455 0.00314167 -0.00742576 0.00285606 -0.00742576 0.00257045 -0.00742576 0.00199924 -0.00771136 0.00199924 -0.00771136 0.00142803 -0.00799697 0.000856818 -0.00799697 0.000571212 -0.00828258 0.000285606zm-0.159083 2.83036l0 -2.99058 0.318165 0 0 2.99058 -0.159083 0.160225 -0.159083 -0.160225zm0 0l0.318165 0 -0.000285606 0.00828258 -0.000571212 0.00799697 -0.000856818 0.00799697 -0.00142803 0.00799697 -0.00199924 0.00771136 -0.00199924 0.00771136 -0.00257045 0.00742576 -0.00285606 0.00714015 -0.00314167 0.00714015 -0.00342727 0.00685455 -0.00399848 0.00685455 -0.00399848 0.00628333 -0.0045697 0.00628333 -0.0045697 0.00628333 -0.00514091 0.00571212 -0.00514091 0.00542652 -0.00571212 0.00542652 -0.00571212 0.00514091 -0.00599773 0.0045697 -0.00628333 0.0045697 -0.00628333 0.00428409 -0.00685455 0.00371288 -0.00685455 0.00371288 -0.00685455 0.00314167 -0.00742576 0.00285606 -0.00742576 0.00257045 -0.00742576 0.00199924 -0.00771136 0.00199924 -0.00771136 0.00142803 -0.00799697 0.000856818 -0.00799697 0.000571212 -0.00828258 0.000285606 -0.00828258 -0.000285606 -0.00799697 -0.000571212 -0.00799697 -0.000856818 -0.00771136 -0.00142803 -0.00771136 -0.00199924 -0.00742576 -0.00199924 -0.00742576 -0.00257045 -0.00742576 -0.00285606 -0.00685455 -0.00314167 -0.00685455 -0.00371288 -0.00685455 -0.00371288 -0.00628333 -0.00428409 -0.00628333 -0.0045697 -0.00599773 -0.0045697 -0.00571212 -0.00514091 -0.00571212 -0.00542652 -0.00514091 -0.00542652 -0.00514091 -0.00571212 -0.0045697 -0.00628333 -0.0045697 -0.00628333 -0.00399848 -0.00628333 -0.00399848 -0.00685455 -0.00342727 -0.00685455 -0.00314167 -0.00714015 -0.00285606 -0.00714015 -0.00257045 -0.00742576 -0.00199924 -0.00771136 -0.00199924 -0.00771136 -0.00142803 -0.00799697 -0.000856818 -0.00799697 -0.000571212 -0.00799697 -0.000285606 -0.00828258zm-0.747145 -0.160225l0.906228 0 0 0.32045 -0.906228 0 -0.159083 -0.160225 0.159083 -0.160225zm0 0l0 0.32045 -0.00828258 -0.000285606 -0.00799697 -0.000571212 -0.00799697 -0.000856818 -0.00771136 -0.00142803 -0.00771136 -0.00199924 -0.00742576 -0.00199924 -0.00742576 -0.00257045 -0.00742576 -0.00285606 -0.00685455 -0.00314167 -0.00685455 -0.00371288 -0.00685455 -0.00371288 -0.00628333 -0.00428409 -0.00628333 -0.0045697 -0.00599773 -0.0045697 -0.00571212 -0.00514091 -0.00571212 -0.00542652 -0.00514091 -0.00542652 -0.00514091 -0.00571212 -0.0045697 -0.00628333 -0.0045697 -0.00628333 -0.00399848 -0.00628333 -0.00399848 -0.00685455 -0.00342727 -0.00685455 -0.00314167 -0.00714015 -0.00285606 -0.00714015 -0.00257045 -0.00742576 -0.00199924 -0.00771136 -0.00199924 -0.00771136 -0.00142803 -0.00799697 -0.000856818 -0.00799697 -0.000571212 -0.00799697 -0.000285606 -0.00828258 0.000285606 -0.00828258 0.000571212 -0.00799697 0.000856818 -0.00799697 0.00142803 -0.00799697 0.00199924 -0.00771136 0.00199924 -0.00771136 0.00257045 -0.00742576 0.00285606 -0.00714015 0.00314167 -0.00714015 0.00342727 -0.00685455 0.00399848 -0.00685455 0.00399848 -0.00628333 0.0045697 -0.00628333 0.0045697 -0.00628333 0.00514091 -0.00571212 0.00514091 -0.00542652 0.00571212 -0.00542652 0.00571212 -0.00514091 0.00599773 -0.0045697 0.00628333 -0.0045697 0.00628333 -0.00428409 0.00685455 -0.00371288 0.00685455 -0.00371288 0.00685455 -0.00314167 0.00742576 -0.00285606 0.00742576 -0.00257045 0.00742576 -0.00199924 0.00771136 -0.00199924 0.00771136 -0.00142803 0.00799697 -0.000856818 0.00799697 -0.000571212 0.00828258 -0.000285606zm0.159083 -2.83036l0 2.99058 -0.318165 0 0 -2.99058 0.159083 -0.160225 0.159083 0.160225zm0 0l-0.318165 0 0.000285606 -0.00828258 0.000571212 -0.00799697 0.000856818 -0.00799697 0.00142803 -0.00799697 0.00199924 -0.00771136 0.00199924 -0.00771136 0.00257045 -0.00742576 0.00285606 -0.00714015 0.00314167 -0.00714015 0.00342727 -0.00685455 0.00399848 -0.00685455 0.00399848 -0.00628333 0.0045697 -0.00628333 0.0045697 -0.00628333 0.00514091 -0.00571212 0.00514091 -0.00542652 0.00571212 -0.00542652 0.00571212 -0.00514091 0.00599773 -0.0045697 0.00628333 -0.0045697 0.00628333 -0.00428409 0.00685455 -0.00371288 0.00685455 -0.00371288 0.00685455 -0.00314167 0.00742576 -0.00285606 0.00742576 -0.00257045 0.00742576 -0.00199924 0.00771136 -0.00199924 0.00771136 -0.00142803 0.00799697 -0.000856818 0.00799697 -0.000571212 0.00828258 -0.000285606 0.00828258 0.000285606 0.00799697 0.000571212 0.00799697 0.000856818 0.00771136 0.00142803 0.00771136 0.00199924 0.00742576 0.00199924 0.00742576 0.00257045 0.00742576 0.00285606 0.00685455 0.00314167 0.00685455 0.00371288 0.00685455 0.00371288 0.00628333 0.00428409 0.00628333 0.0045697 0.00599773 0.0045697 0.00571212 0.00514091 0.00571212 0.00542652 0.00514091 0.00542652 0.00514091 0.00571212 0.0045697 0.00628333 0.0045697 0.00628333 0.00399848 0.00628333 0.00399848 0.00685455 0.00342727 0.00685455 0.00314167 0.00714015 0.00285606 0.00714015 0.00257045 0.00742576 0.00199924 0.00771136 0.00199924 0.00771136 0.00142803 0.00799697 0.000856818 0.00799697 0.000571212 0.00799697 0.000285606 0.00828258z"/>
    </g>
    <circle class="fil2 str1" cx="11.6238" cy="14.1378" r="0.40779"/>
    <circle class="fil2 str1" cx="13.6401" cy="12.2348" r="0.453064"/>
    <circle class="fil2 str1" cx="14.8862" cy="13.4808" r="0.453064"/>
    <line class="fil2 str1" x1="11.9383" y1="13.8559" x2="13.3032" y2= "12.5344" />
    <line class="fil2 str1" x1="13.9476" y1="12.5672" x2="14.5479" y2= "13.1679" />
    <g>
     <path class="fil3" d="M15.9551 10.9393l0.299886 0.0685455 -0.00314167 0.0045697 -0.00342727 0.00428409 -0.00399848 0.00428409 -0.00428409 0.00399848 -0.00428409 0.00399848 -0.0048553 0.00371288 -0.00514091 0.00342727 -0.00514091 0.00342727 -0.00571212 0.00314167 -0.00571212 0.00314167 -0.00599773 0.00285606 -0.00628333 0.00285606 -0.00656894 0.00228485 -0.00656894 0.00257045 -0.00685455 0.00199924 -0.00714015 0.00199924 -0.00714015 0.00171364 -0.00714015 0.00142803 -0.00742576 0.00142803 -0.00742576 0.00114242 -0.00771136 0.000856818 -0.00771136 0.000856818 -0.00771136 0.000285606 -0.00771136 0.000285606 -0.00799697 0 -0.00771136 0 -0.00799697 -0.000571212 -0.00771136 -0.000571212 -0.00799697 -0.000856818 -0.00771136 -0.00114242 -0.00799697 -0.00142803 -0.00771136 -0.00171364 -0.00771136 -0.00199924 -0.00714015 -0.00199924 -0.00714015 -0.00228485 -0.00685455 -0.00228485 -0.00656894 -0.00285606 -0.00656894 -0.00285606 -0.00599773 -0.00285606 -0.00571212 -0.00314167 -0.00542652 -0.00342727 -0.00514091 -0.00342727 -0.0048553 -0.00342727 -0.0045697 -0.00371288 -0.00428409 -0.00371288 -0.00399848 -0.00399848 -0.00371288 -0.00399848 -0.00314167 -0.00428409 -0.00314167 -0.00399848 -0.00257045 -0.00428409 -0.00228485 -0.0045697 -0.00199924 -0.00428409 -0.00142803 -0.0045697 -0.00114242 -0.0045697 -0.000856818 -0.0045697 -0.000571212 -0.0045697 0 -0.0045697 0.000285606 -0.0045697 0.000856818 -0.0048553 0.00114242 -0.0045697 0.00142803 -0.0045697 0.00199924 -0.0048553 0.00228485 -0.0045697 0.00285606 -0.0045697zm1.23725 -1.36063l-0.937359 1.42917 -0.299886 -0.0685455 0.937359 -1.42917 0.299886 0.0685455zm0 0l-0.299886 -0.0685455 0.00314167 -0.0045697 0.00342727 -0.00428409 0.00399848 -0.00428409 0.00428409 -0.00399848 0.00428409 -0.00399848 0.0048553 -0.00371288 0.00514091 -0.00342727 0.00514091 -0.00342727 0.00571212 -0.00314167 0.00571212 -0.00314167 0.00599773 -0.00285606 0.00628333 -0.00285606 0.00656894 -0.00228485 0.00656894 -0.00257045 0.00685455 -0.00199924 0.00714015 -0.00199924 0.00714015 -0.00171364 0.00714015 -0.00142803 0.00742576 -0.00142803 0.00742576 -0.00114242 0.00771136 -0.000856818 0.00771136 -0.000856818 0.00771136 -0.000285606 0.00771136 -0.000285606 0.00799697 0 0.00771136 0 0.00799697 0.000571212 0.00771136 0.000571212 0.00799697 0.000856818 0.00771136 0.00114242 0.00799697 0.00142803 0.00771136 0.00171364 0.00771136 0.00199924 0.00714015 0.00199924 0.00714015 0.00228485 0.00685455 0.00228485 0.00656894 0.00285606 0.00656894 0.00285606 0.00599773 0.00285606 0.00571212 0.00314167 0.00542652 0.00342727 0.00514091 0.00342727 0.0048553 0.00342727 0.0045697 0.00371288 0.00428409 0.00371288 0.00399848 0.00399848 0.00371288 0.00399848 0.00314167 0.00428409 0.00314167 0.00399848 0.00257045 0.00428409 0.00228485 0.0045697 0.00199924 0.00428409 0.00142803 0.0045697 0.00114242 0.0045697 0.000856818 0.0045697 0.000571212 0.0045697 0 0.0045697 -0.000285606 0.0045697 -0.000856818 0.0048553 -0.00114242 0.0045697 -0.00142803 0.0045697 -0.00199924 0.0048553 -0.00228485 0.0045697 -0.00285606 0.0045697z"/>
    </g>
    <circle class="fil4 str1" cx="17.5679" cy="8.36635" r="1.30264"/>
    <circle class="fil2 str1" cx="15.8355" cy="11.42" r="0.453064"/>
    <g>
     <path class="fil3" d="M15.0446 13.1076l0.314738 0.0377 -0.00171364 0.0048553 -0.00228485 0.0045697 -0.00257045 0.0045697 -0.00314167 0.00428409 -0.00314167 0.00428409 -0.00371288 0.00428409 -0.00399848 0.00399848 -0.00428409 0.00399848 -0.0045697 0.00371288 -0.0048553 0.00342727 -0.00514091 0.00342727 -0.00514091 0.00342727 -0.00571212 0.00314167 -0.00599773 0.00285606 -0.00599773 0.00285606 -0.00628333 0.00257045 -0.00656894 0.00228485 -0.00685455 0.00228485 -0.00685455 0.00228485 -0.00714015 0.00171364 -0.00714015 0.00171364 -0.00742576 0.00142803 -0.00742576 0.00114242 -0.00771136 0.00114242 -0.00771136 0.000856818 -0.00771136 0.000571212 -0.00799697 0.000285606 -0.00799697 0.000285606 -0.00799697 -0.000285606 -0.00799697 -0.000285606 -0.00828258 -0.000571212 -0.00799697 -0.000856818 -0.00799697 -0.00114242 -0.00799697 -0.00114242 -0.00771136 -0.00171364 -0.00742576 -0.00171364 -0.00714015 -0.00199924 -0.00714015 -0.00199924 -0.00656894 -0.00228485 -0.00656894 -0.00257045 -0.00656894 -0.00285606 -0.00599773 -0.00285606 -0.00571212 -0.00285606 -0.00571212 -0.00314167 -0.00514091 -0.00342727 -0.00514091 -0.00342727 -0.0045697 -0.00371288 -0.00428409 -0.00371288 -0.00428409 -0.00399848 -0.00371288 -0.00371288 -0.00342727 -0.00428409 -0.00314167 -0.00399848 -0.00285606 -0.00428409 -0.00228485 -0.0045697 -0.00228485 -0.00428409 -0.00171364 -0.0045697 -0.00142803 -0.0045697 -0.000856818 -0.0045697 -0.000571212 -0.0045697 -0.000285606 -0.0048553 0 -0.0048553 0.000856818 -0.0045697 0.000856818 -0.0048553 0.00142803 -0.0048553zm0.743147 -1.20611l-0.428409 1.24381 -0.314738 -0.0377 0.428409 -1.24381 0.314738 0.0377zm0 0l-0.314738 -0.0377 0.00171364 -0.0048553 0.00228485 -0.0045697 0.00257045 -0.0045697 0.00314167 -0.00428409 0.00314167 -0.00428409 0.00371288 -0.00428409 0.00399848 -0.00399848 0.00428409 -0.00399848 0.0045697 -0.00371288 0.0048553 -0.00342727 0.00514091 -0.00342727 0.00514091 -0.00342727 0.00571212 -0.00314167 0.00599773 -0.00285606 0.00599773 -0.00285606 0.00628333 -0.00257045 0.00656894 -0.00228485 0.00685455 -0.00228485 0.00685455 -0.00228485 0.00714015 -0.00171364 0.00714015 -0.00171364 0.00742576 -0.00142803 0.00742576 -0.00114242 0.00771136 -0.00114242 0.00771136 -0.000856818 0.00771136 -0.000571212 0.00799697 -0.000285606 0.00799697 -0.000285606 0.00799697 0.000285606 0.00799697 0.000285606 0.00828258 0.000571212 0.00799697 0.000856818 0.00799697 0.00114242 0.00799697 0.00114242 0.00771136 0.00171364 0.00742576 0.00171364 0.00714015 0.00199924 0.00714015 0.00199924 0.00656894 0.00228485 0.00656894 0.00257045 0.00656894 0.00285606 0.00599773 0.00285606 0.00571212 0.00285606 0.00571212 0.00314167 0.00514091 0.00342727 0.00514091 0.00342727 0.0045697 0.00371288 0.00428409 0.00371288 0.00428409 0.00399848 0.00371288 0.00371288 0.00342727 0.00428409 0.00314167 0.00399848 0.00285606 0.00428409 0.00228485 0.0045697 0.00228485 0.00428409 0.00171364 0.0045697 0.00142803 0.0045697 0.000856818 0.0045697 0.000571212 0.0045697 0.000285606 0.0048553 0 0.0048553 -0.000856818 0.0045697 -0.000856818 0.0048553 -0.00142803 0.0048553z"/>
    </g>
   </g>
  </g>
 </g>
</svg>
