<?xml version="1.0" encoding="UTF-8"?>
<!DOCTYPE svg PUBLIC "-//W3C//DTD SVG 1.1//EN" "http://www.w3.org/Graphics/SVG/1.1/DTD/svg11.dtd">
<!-- Creator: CorelDRAW -->
<svg xmlns="http://www.w3.org/2000/svg" xml:space="preserve" width="55px" height="75px" style="shape-rendering:geometricPrecision; text-rendering:geometricPrecision; image-rendering:optimizeQuality; fill-rule:evenodd; clip-rule:evenodd"
viewBox="0 0 4.29115 5.85165"
 xmlns:xlink="http://www.w3.org/1999/xlink">
 <defs>
  <style type="text/css">
   <![CDATA[
    .fil0 {fill:none}
    .fil1 {fill:#BDBFC1}
   ]]>
  </style>
 </defs>
 <g id="Layer_x0020_1">
  <metadata id="CorelCorpID_0Corel-Layer"/>
  <rect class="fil0" x="-3.40142e-005" y="1.64947e-005" width="4.29122" height="5.85162"/>
  <g id="_530290736">
   <path id="_530291888" class="fil1" d="M2.69922 2.7301l-0.0273691 -0.0936264c0.194717,-0.0569499 0.661744,-0.359208 0.661744,-0.769285 0,-0.175181 -0.160805,-0.315436 -0.345109,-0.27019l-0.0233145 -0.0946401c0.0302259,-0.00746431 0.0605439,-0.0112425 0.0899404,-0.0112425 0.207342,0 0.376072,0.168638 0.376072,0.376072 0,0.452927 -0.484627,0.790572 -0.731963,0.862911z"/>
   <path id="_530293256" class="fil1" d="M1.59183 2.7301c-0.247244,-0.0723393 -0.731871,-0.409984 -0.731871,-0.862911 0,-0.236738 0.221902,-0.424821 0.465921,-0.36483l-0.0233145 0.0947323c-0.184396,-0.0455231 -0.345201,0.0949166 -0.345201,0.270098 0,0.410076 0.467026,0.712335 0.661836,0.769285l-0.0273691 0.0936264z"/>
   <path id="_530293160" class="fil1" d="M2.02522 3.27812l0 0.078237c0.0781449,-0.0108739 0.162556,-0.0108739 0.240701,-9.2152e-005l0 -0.078237 -0.240701 0 0 9.2152e-005zm-0.0487484 0.185041c-0.0110582,0 -0.0219322,-0.00377823 -0.0306866,-0.0107818 -0.0114268,-0.00930735 -0.0180618,-0.0233145 -0.0180618,-0.0379666l0 -0.185041c0,-0.0270005 0.02184,-0.0487484 0.0487484,-0.0487484l0.338198 0c0.0269084,0 0.0487484,0.0217479 0.0487484,0.0487484l0 0.185041c0,0.0147443 -0.0067271,0.0286593 -0.0181539,0.0379666 -0.0114268,0.0092152 -0.0264476,0.012717 -0.0409155,0.00967596 -0.100354,-0.0217479 -0.217202,-0.0217479 -0.317648,0 -0.00340962,0.000737216 -0.00681925,0.00110582 -0.0102289,0.00110582z"/>
   <path id="_530291024" class="fil1" d="M1.53617 4.38865l1.21871 0 0 -0.0825682 -1.21871 0 0 0.0825682zm1.26746 0.0974968l-1.31621 0c-0.0269084,0 -0.0487484,-0.0217479 -0.0487484,-0.0487484l0 -0.180157c0,-0.0269084 0.02184,-0.0487484 0.0487484,-0.0487484l1.31621 0c0.0270005,0 0.0487484,0.02184 0.0487484,0.0487484l0 0.180157c0,0.0270005 -0.0217479,0.0487484 -0.0487484,0.0487484z"/>
   <path id="_530293352" class="fil1" d="M1.62059 4.20849l1.04989 0 0 -0.589404 -1.04989 0 0 0.589404zm1.09864 0.097589l-1.14738 0c-0.0269084,0 -0.0487484,-0.02184 -0.0487484,-0.0488406l0 -0.686901c0,-0.0270005 0.02184,-0.0488406 0.0487484,-0.0488406l1.14738 0c0.0270005,0 0.0488406,0.02184 0.0488406,0.0488406l0 0.686901c0,0.0269084 -0.02184,0.0488406 -0.0488406,0.0488406z"/>
   <path id="_530292992" class="fil1" d="M1.81567 4.0134l0.659808 0 0 -0.199325 -0.659808 0 0 0.199325zm0.708557 0.0974968l-0.757305 0c-0.0270005,0 -0.0488406,-0.0217479 -0.0488406,-0.0487484l0 -0.296822c0,-0.0270005 0.02184,-0.0488406 0.0488406,-0.0488406l0.757305 0c0.0270005,0 0.0488406,0.02184 0.0488406,0.0488406l0 0.296822c0,0.0269084 -0.02184,0.0487484 -0.0488406,0.0487484z"/>
   <path id="_530289992" class="fil1" d="M1.928 2.96739c0.0156658,0 0.0485641,0 0.048472,0l0.38667 0c0.100538,-0.0612811 0.197205,-0.167624 0.280419,-0.308894 0.0198127,-0.0337276 0.038796,-0.0693905 0.0565813,-0.10579 0.122562,-0.252128 0.199786,-0.569592 0.223192,-0.918203 0.00193519,-0.0287514 0.00350178,-0.057595 0.0047919,-0.0868072 0.00110582,-0.0281985 0.0023038,-0.0562127 0.00276456,-0.0846877l-1.57073 0c0.00046076,0.0269084 0.00165874,0.0536325 0.00267241,0.0802644 0.00138228,0.0336355 0.00304102,0.0624791 0.00497621,0.0912305 0.0234988,0.348703 0.10063,0.666167 0.2231,0.918203 0.0177853,0.0364 0.0367686,0.0719707 0.0566735,0.105698 0.0831211,0.141361 0.179789,0.247705 0.280419,0.308986zm0.442975 0.10063c-0.00580558,0 -0.0116112,-0.00101367 -0.0170481,-0.00304102l-0.377547 0c-0.0142836,0 -0.0270927,0 -0.0384274,-0.00046076 -0.0134542,0.00543697 -0.0287514,0.00451545 -0.0417449,-0.00276456 -0.123115,-0.0688375 -0.234988,-0.187898 -0.332669,-0.353864 -0.0212871,-0.0359393 -0.0415606,-0.0739059 -0.0604517,-0.11261 -0.127907,-0.263186 -0.208356,-0.59309 -0.232684,-0.954234 -0.00202734,-0.0295808 -0.00368608,-0.0593459 -0.00488406,-0.0893874 -0.00156658,-0.0372294 -0.00285671,-0.0698512 -0.00322532,-0.103118 -9.2152e-005,-0.0221165 0.00847798,-0.0429428 0.0240517,-0.0587008 0.0155737,-0.0156658 0.0364,-0.0243281 0.0584244,-0.0243281l1.6016 0c0.0221165,0 0.0429428,0.00875444 0.0585165,0.0245124 0.0155737,0.015758 0.0240517,0.0366765 0.0237752,0.058793 -0.000368608,0.034557 -0.00175089,0.0686532 -0.00313317,0.102749 -0.00119798,0.030318 -0.00294886,0.0598988 -0.00488406,0.0895717 -0.0243281,0.360959 -0.104777,0.690956 -0.232776,0.954234 -0.0188912,0.038796 -0.0391646,0.0766705 -0.0602674,0.11261 -0.0976811,0.165874 -0.209646,0.285026 -0.332761,0.353864 -0.00746431,0.00414684 -0.0156658,0.00617418 -0.0238674,0.00617418z"/>
   <path id="_530290328" class="fil1" d="M2.35725 2.81054l-0.0565813 -0.0795272c0.0646907,-0.0459838 0.129381,-0.122194 0.187161,-0.220243 0.0167717,-0.028475 0.0326218,-0.0582401 0.047274,-0.0882816 0.1045,-0.214991 0.173246,-0.49974 0.193611,-0.801815 0.00101367,-0.0142836 0.00184304,-0.0287514 0.00267241,-0.0440487l0.0974047 0.00506836c-0.00092152,0.015758 -0.00175089,0.0305023 -0.00276456,0.0454309 -0.021195,0.314423 -0.09335,0.611981 -0.203195,0.83803 -0.015758,0.0323454 -0.0328983,0.0643221 -0.0509601,0.0951009 -0.0646907,0.109753 -0.138873,0.196284 -0.214622,0.250285z"/>
   <path id="_530292800" class="fil1" d="M1.99426 3.18063l0.302627 0c0.00626634,-0.0159423 0.0125327,-0.0425742 0.012717,-0.0525266 -0.000184304,-0.0117955 -0.00718786,-0.0443251 -0.0141914,-0.0631241l-0.299678 0c-0.00700355,0.018799 -0.0140993,0.0513287 -0.0141914,0.0632163 0.000184304,0.00986026 0.00635849,0.0364922 0.012717,0.0524345zm0.322624 0.0974968l-0.340409 0c-0.0828446,0 -0.0924285,-0.148457 -0.0924285,-0.150023 0,-0.00156658 0.00810938,-0.160713 0.0902168,-0.160713l0.340409 0c0.0843191,0 0.0924285,0.159147 0.0924285,0.160713 0,0.00156658 -0.00958381,0.150116 -0.0902168,0.150023z"/>
   <path id="_530292680" class="fil1" d="M1.84009 3.5215l0.610876 0c-0.0301337,-0.0226694 -0.0795272,-0.044878 -0.146614,-0.059438 -0.100354,-0.0217479 -0.21711,-0.0217479 -0.317648,0l0 0c-0.0669945,0.01456 -0.11648,0.0367686 -0.146614,0.059438zm0.694089 0.0974968l-0.77721 0c-0.0269084,0 -0.0488406,-0.0217479 -0.0488406,-0.0487484 0,-0.0924285 0.0964831,-0.168546 0.258026,-0.203564l0 0c0.113992,-0.0246046 0.244848,-0.0245124 0.358748,0 0.161542,0.0350178 0.258026,0.111043 0.258026,0.203564 0,0.0270005 -0.02184,0.0487484 -0.0487484,0.0487484z"/>
  </g>
 </g>
</svg>
