<?xml version="1.0" encoding="UTF-8"?>
<!DOCTYPE svg PUBLIC "-//W3C//DTD SVG 1.1//EN" "http://www.w3.org/Graphics/SVG/1.1/DTD/svg11.dtd">
<!-- Creator: CorelDRAW -->
<svg xmlns="http://www.w3.org/2000/svg" xml:space="preserve" width="95px" height="95px" style="shape-rendering:geometricPrecision; text-rendering:geometricPrecision; image-rendering:optimizeQuality; fill-rule:evenodd; clip-rule:evenodd"
viewBox="0 0 22.9719 22.9719"
 xmlns:xlink="http://www.w3.org/1999/xlink">
 <defs>
  <style type="text/css">
   <![CDATA[
    .fil0 {fill:#FEFEFE}
    .fil1 {fill:#004CD2}
    .fil2 {fill:#FCDB17}
   ]]>
  </style>
 </defs>
 <g id="Layer_x0020_1">
  <metadata id="CorelCorpID_0Corel-Layer"/>
  <g id="_164327600">
   <circle id="_471545104" class="fil0" cx="11.4859" cy="11.4859" r="11.4861"/>
   <g>
    <path id="_471550576" class="fil1" d="M13.3809 10.8159l-0.0936788 -0.32045c0.666319,-0.194783 2.26486,-1.22925 2.26486,-2.633 0,-0.599202 -0.550363,-1.07931 -1.18127,-0.924507l-0.0796841 -0.323877c0.103675,-0.0257045 0.207064,-0.0385568 0.307883,-0.0385568 0.709731,0 1.28723,0.57721 1.28723,1.28694 -0.000285606,1.55027 -1.65909,2.70583 -2.50534,2.95345z"/>
    <path id="_471547480" class="fil1" d="M9.59065 10.8159c-0.845965,-0.247335 -2.50505,-1.40318 -2.50505,-2.95345 0,-0.810264 0.759712,-1.45373 1.59482,-1.24838l-0.0799697 0.323877c-0.631189,-0.155655 -1.18127,0.325305 -1.18127,0.924507 0,1.40375 1.59854,2.43822 2.26514,2.633l-0.0936788 0.32045z"/>
    <path id="_471549928" class="fil1" d="M11.0741 12.6918l0 0.267613c0.267327,-0.0371288 0.556361,-0.0371288 0.823688,-0.000285606l0 -0.267613 -0.823688 0 0 0.000285606zm-0.16708 0.633189c-0.0377,0 -0.0748288,-0.0128523 -0.104817,-0.0368432 -0.039128,-0.0317023 -0.0619765,-0.0796841 -0.0619765,-0.129951l0 -0.633474c0,-0.0922508 0.0748288,-0.166794 0.166794,-0.166794l1.15756 0c0.0922508,0 0.166794,0.0745432 0.166794,0.166794l0 0.633474c0,0.0505523 -0.0228485,0.0982485 -0.0619765,0.129951 -0.039128,0.0314167 -0.0905371,0.0434121 -0.139947,0.0331303 -0.343584,-0.0742576 -0.743433,-0.0742576 -1.08702,0 -0.0117098,0.00257045 -0.0237053,0.00371288 -0.0354152,0.00371288z"/>
    <path id="_471550456" class="fil1" d="M9.40015 16.4926l4.17128 0 0 -0.28275 -4.17128 0 0 0.28275zm4.33807 0.333873l-4.50486 0c-0.0922508,0 -0.166794,-0.0748288 -0.166794,-0.16708l0 -0.616338c0,-0.0922508 0.0745432,-0.16708 0.166794,-0.16708l4.50486 0c0.0925364,0 0.16708,0.0748288 0.16708,0.16708l0 0.616338c0,0.0922508 -0.0745432,0.16708 -0.16708,0.16708z"/>
    <path id="_471550528" class="fil1" d="M9.68919 15.876l3.5935 0 0 -2.01752 -3.5935 0 0 2.01752zm3.76029 0.333873l-3.92708 0c-0.0922508,0 -0.16708,-0.0745432 -0.16708,-0.166794l0 -2.35139c0,-0.0922508 0.0748288,-0.166794 0.166794,-0.166794l3.92737 0c0.0922508,0 0.166794,0.0745432 0.166794,0.166794l0 2.35139c0,0.0919652 -0.0748288,0.166794 -0.166794,0.166794z"/>
    <path id="_471550144" class="fil1" d="M12.782 15.5421l-2.59216 0c-0.0922508,0 -0.16708,-0.0745432 -0.16708,-0.166794l0 -1.01619c0,-0.0922508 0.0748288,-0.16708 0.16708,-0.16708l2.59216 0c0.0922508,0 0.166794,0.0748288 0.166794,0.16708l0.000285606 1.01619c0,0.0919652 -0.0748288,0.166794 -0.16708,0.166794z"/>
    <polygon id="_471551344" class="fil2" points="10.3566,15.2082 12.6152,15.2082 12.6152,14.5259 10.3566,14.5259 "/>
    <path id="_471550864" class="fil1" d="M10.7414 11.6282c0.0536939,0 0.165937,0 0.165652,0l1.3235 0c0.344155,-0.209635 0.675173,-0.573783 0.959636,-1.05731 0.0679742,-0.115385 0.133092,-0.237339 0.193927,-0.362148 0.419555,-0.862816 0.683741,-1.94926 0.763711,-3.14252 0.00685455,-0.0985341 0.0119955,-0.197068 0.0165652,-0.29703 0.00371288,-0.0965348 0.00771136,-0.192498 0.009425,-0.28989l-5.37596 0c0.00171364,0.0922508 0.00542652,0.183359 0.00913939,0.274753 0.0045697,0.115099 0.0102818,0.213919 0.0168508,0.312167 0.0805409,1.19355 0.344441,2.27999 0.763996,3.14252 0.0605485,0.12481 0.125667,0.246478 0.193927,0.362148 0.284464,0.483531 0.615195,0.847393 0.959636,1.05731zm1.51628 0.344441c-0.0199924,0 -0.0396992,-0.00342727 -0.0585492,-0.0105674l-1.29208 0c-0.0491242,0 -0.092822,0 -0.131664,-0.00142803 -0.0459826,0.0185644 -0.0985341,0.0154227 -0.142803,-0.009425 -0.421269,-0.235911 -0.804267,-0.643185 -1.13871,-1.21097 -0.0728295,-0.123382 -0.142232,-0.253047 -0.206779,-0.385568 -0.437834,-0.900802 -0.713158,-2.03009 -0.796555,-3.26591 -0.00685455,-0.10139 -0.0125667,-0.203352 -0.0168508,-0.30617 -0.00514091,-0.127095 -0.00971061,-0.239052 -0.010853,-0.352723 -0.000285606,-0.0756856 0.0288462,-0.147087 0.0822545,-0.200781 0.0534083,-0.0536939 0.124524,-0.083397 0.199924,-0.083397l5.48192 -0.000285606c0.0756856,0 0.146802,0.0299886 0.20021,0.0839682 0.0534083,0.0542652 0.0822545,0.125667 0.0811121,0.201352 -0.00114242,0.118241 -0.00571212,0.235054 -0.0105674,0.351581 -0.00428409,0.103675 -0.00999621,0.205065 -0.0165652,0.306455 -0.0831114,1.23553 -0.358436,2.3651 -0.796841,3.26619 -0.0648326,0.132807 -0.134235,0.262472 -0.206208,0.385283 -0.334445,0.56807 -0.717728,0.97563 -1.139,1.21126 -0.0254189,0.0139947 -0.0534083,0.0211348 -0.0813977,0.0211348z"/>
    <path id="_471550480" class="fil1" d="M12.2102 11.0912l-0.193641 -0.271897c0.221345,-0.157655 0.442975,-0.418413 0.6409,-0.754 0.0571212,-0.0976773 0.111672,-0.199353 0.161653,-0.302171 0.357864,-0.735721 0.593204,-1.71021 0.662606,-2.74439 0.00342727,-0.0488386 0.00628333,-0.0982485 0.00913939,-0.150514l0.333302 0.0171364c-0.00285606,0.0539795 -0.00599773,0.104532 -0.00913939,0.15537 -0.0728295,1.07645 -0.319593,2.09492 -0.695736,2.86834 -0.0536939,0.110815 -0.112529,0.220202 -0.17422,0.325591 -0.22163,0.375858 -0.475534,0.672031 -0.734864,0.856533z"/>
    <path id="_471550888" class="fil1" d="M10.9681 12.3582l1.03561 0c0.0217061,-0.0545508 0.0431265,-0.145659 0.0434121,-0.179932 -0.000285606,-0.0402705 -0.0245621,-0.151657 -0.048553,-0.216204l-1.02561 0c-0.0237053,0.064547 -0.0479818,0.175933 -0.048553,0.216489 0.000571212,0.0339871 0.0219917,0.12481 0.0436977,0.179646zm1.10415 0.333588l-1.16527 0c-0.283607,0 -0.316166,-0.508093 -0.316166,-0.51352 0,-0.00542652 0.0279894,-0.550077 0.30874,-0.550077l1.16499 0c0.288462,0 0.316452,0.544651 0.316452,0.550077 0,0.00542652 -0.0325591,0.51352 -0.30874,0.51352z"/>
    <path id="_471551008" class="fil1" d="M10.4403 13.5246l2.09092 0c-0.103104,-0.0776848 -0.272468,-0.153656 -0.502095,-0.203352 -0.343298,-0.0742576 -0.742861,-0.0742576 -1.08673,0l0 0c-0.229627,0.0496955 -0.398706,0.125667 -0.502095,0.203352zm2.37567 0.333873l-2.66013 0c-0.0922508,0 -0.16708,-0.0745432 -0.16708,-0.16708 0,-0.316166 0.330161,-0.576924 0.883094,-0.696593l0 0c0.390138,-0.0842538 0.837968,-0.0836826 1.22782,0 0.552933,0.119669 0.883094,0.380142 0.883094,0.696593 0,0.0925364 -0.0748288,0.16708 -0.166794,0.16708z"/>
   </g>
  </g>
 </g>
</svg>
