<?xml version="1.0" encoding="UTF-8"?>
<!DOCTYPE svg PUBLIC "-//W3C//DTD SVG 1.1//EN" "http://www.w3.org/Graphics/SVG/1.1/DTD/svg11.dtd">
<!-- Creator: CorelDRAW -->
<svg xmlns="http://www.w3.org/2000/svg" xml:space="preserve" width="75px" height="75px" style="shape-rendering:geometricPrecision; text-rendering:geometricPrecision; image-rendering:optimizeQuality; fill-rule:evenodd; clip-rule:evenodd"
viewBox="0 0 2.57159 2.57159"
 xmlns:xlink="http://www.w3.org/1999/xlink">
 <defs>
  <style type="text/css">
   <![CDATA[
    .fil0 {fill:none}
    .fil1 {fill:#BDBFC1}
   ]]>
  </style>
 </defs>
 <g id="Layer_x0020_1">
  <metadata id="CorelCorpID_0Corel-Layer"/>
  <rect class="fil0" width="2.57157" height="2.57157"/>
  <g id="_559660688">
   <path id="_559661480" class="fil1" d="M0.77095 2.08615c-0.0289152,0 -0.047868,-0.00226786 -0.0486374,-0.00242985 -0.0127567,-0.0016199 -0.023286,-0.0105698 -0.0269308,-0.0227596 -0.00372577,-0.0123112 0,-0.0255944 0.00980039,-0.0340179 0.080347,-0.0697771 0.0850447,-0.137084 0.0811974,-0.170008l-0.0925367 0c-0.339045,0 -0.502938,-0.256389 -0.502938,-0.685784 0,-0.429314 0.163893,-0.685662 0.502938,-0.685662l1.18402 0c0.338923,0 0.502816,0.256349 0.502816,0.685662 0,0.429395 -0.163893,0.685784 -0.502816,0.685784l-0.755521 0c-0.0542261,0.206254 -0.261816,0.229216 -0.351396,0.229216zm-0.032479 -0.0385536c0.0108128,0.000850447 0.0219496,0.000931442 0.032479,0.000931442 0.140324,0 0.276031,-0.0528492 0.31503,-0.201151l0.00737054 -0.0280647 0.784517 0c0.373711,0 0.465235,-0.331026 0.465235,-0.648162 0,-0.317136 -0.0915243,-0.648081 -0.465235,-0.648081l-1.18402 0c-0.373751,0 -0.465356,0.330864 -0.465356,0.648081 0,0.317217 0.0915243,0.648162 0.465356,0.648162l0.125947 0 0.00392825 0.0332484c0.00894994,0.0763377 -0.0307781,0.144819 -0.0852472,0.195036z"/>
   <path id="_559661336" class="fil1" d="M0.900218 1.2909l-0.0948451 -0.0137691 -0.0424008 -0.0858546 -0.0425223 0.0858141 -0.0948046 0.0138906 0.0688457 0.0668613 -0.0164015 0.0947641 0.0849637 -0.0449117 0.0848422 0.0449522 -0.0165635 -0.0947641 0.0688862 -0.0669828zm0.0525657 -0.0170899c-0.00271333,-0.00826148 -0.0100434,-0.0147006 -0.0191553,-0.0159965l-0.103269 -0.0150651 -0.0462886 -0.0936706c-0.007978,-0.016118 -0.0345038,-0.016118 -0.0421984,0l-0.0463696 0.0936706 -0.103431 0.0151056c-0.00882845,0.00133642 -0.0160775,0.00773501 -0.0191148,0.016037 -0.00255134,0.00870695 -0.000283482,0.0181024 0.00599362,0.024177l0.0751228 0.0728954 -0.0178594 0.103107c-0.0016199,0.00903093 0.00194388,0.0181024 0.00935491,0.023124 0.00409024,0.00295631 0.00903093,0.00465721 0.0138096,0.00465721 0.00400925,0 0.00761352,-0.00105293 0.0110963,-0.00267283l0.0925772 -0.0489209 0.0923342 0.0489209c0.00376626,0.0015794 0.007978,0.00267283 0.0113798,0.00267283 0.0121087,0.000283482 0.0238125,-0.0103269 0.0238125,-0.0237315 0,-0.00299681 -0.000647959,-0.0064391 -0.0016604,-0.00915243l-0.0171304 -0.0980039 0.0750013 -0.0728954c0.00627711,-0.00615561 0.00870695,-0.0155105 0.00599362,-0.024258z"/>
   <path id="_559661192" class="fil1" d="M1.42426 1.2909l-0.0948046 -0.0137691 -0.0424413 -0.0858546 -0.0425223 0.0858141 -0.0948046 0.0138906 0.0688862 0.0668613 -0.016442 0.0947641 0.0850042 -0.0449117 0.0848017 0.0449522 -0.0165635 -0.0947641 0.0688862 -0.0669828zm0.0525657 -0.0170899c-0.00267283,-0.00826148 -0.0100434,-0.0147006 -0.0191148,-0.0159965l-0.103309 -0.0150651 -0.0462481 -0.0936706c-0.007978,-0.016118 -0.0345443,-0.016118 -0.0421984,0l-0.0463696 0.0936706 -0.103471 0.0151056c-0.00882845,0.00133642 -0.0160775,0.00773501 -0.0191148,0.016037 -0.00255134,0.00870695 -0.000283482,0.0181024 0.00603412,0.024177l0.0750823 0.0728954 -0.0178594 0.103107c-0.0016199,0.00903093 0.00194388,0.0181024 0.00935491,0.023124 0.00409024,0.00295631 0.00903093,0.00465721 0.0138096,0.00465721 0.00400925,0 0.00765402,-0.00105293 0.0110963,-0.00267283l0.0925772 -0.0489209 0.0923747 0.0489209c0.00376626,0.0015794 0.007978,0.00267283 0.0113393,0.00267283 0.0121492,0.000283482 0.0238125,-0.0103269 0.0238125,-0.0237315 0,-0.00299681 -0.000647959,-0.0064391 -0.0016604,-0.00915243l-0.0171304 -0.0980039 0.0750418 -0.0728954c0.00623661,-0.00615561 0.00870695,-0.0155105 0.00595313,-0.024258z"/>
   <path id="_559661048" class="fil1" d="M1.95348 1.2909l-0.0948046 -0.0137691 -0.0424008 -0.0858546 -0.0425223 0.0858141 -0.0948046 0.0138906 0.0688457 0.0668613 -0.0164015 0.0947641 0.0849637 -0.0449117 0.0848017 0.0449522 -0.0165635 -0.0947641 0.0688862 -0.0669828zm0.0526062 -0.0170899c-0.00271333,-0.00826148 -0.0100434,-0.0147006 -0.0191553,-0.0159965l-0.103269 -0.0150651 -0.0462886 -0.0936706c-0.007978,-0.016118 -0.0345038,-0.016118 -0.0421984,0l-0.0463696 0.0936706 -0.103431 0.0151056c-0.00886894,0.00133642 -0.016118,0.00773501 -0.0191148,0.016037 -0.00259184,0.00870695 -0.000283482,0.0181024 0.00599362,0.024177l0.0751228 0.0728954 -0.0178999 0.103107c-0.0015794,0.00903093 0.00198438,0.0181024 0.00939541,0.023124 0.00409024,0.00295631 0.00903093,0.00465721 0.0137691,0.00465721 0.00400925,0 0.00765402,-0.00105293 0.0111368,-0.00267283l0.0925772 -0.0489209 0.0923342 0.0489209c0.00376626,0.0015794 0.007978,0.00267283 0.0113798,0.00267283 0.0121087,0.000283482 0.0238125,-0.0103269 0.0238125,-0.0237315 0,-0.00299681 -0.000647959,-0.0064391 -0.0016604,-0.00915243l-0.0171709 -0.0980039 0.0750418 -0.0728954c0.00623661,-0.00615561 0.00870695,-0.0155105 0.00599362,-0.024258z"/>
   <g>
    <path id="_559660904" class="fil1" d="M1.15847 0.879362l-0.0948046 -0.0137691 -0.0424413 -0.0858546 -0.0425223 0.0858141 -0.0948046 0.0138501 0.0688862 0.0669018 -0.016442 0.0947641 0.0850042 -0.0449117 0.0848017 0.0449522 -0.0165635 -0.0947641 0.0688862 -0.0669828zm0.0525657 -0.0170899c-0.00267283,-0.00826148 -0.0100434,-0.0147006 -0.0191148,-0.016037l-0.103309 -0.0150246 -0.0462481 -0.0936706c-0.007978,-0.016118 -0.0345443,-0.016118 -0.0421984,0l-0.0464101 0.0936706 -0.103431 0.0151056c-0.00882845,0.00129592 -0.0160775,0.00773501 -0.0191148,0.016037 -0.00255134,0.00870695 -0.000283482,0.0181024 0.00603412,0.024177l0.0750823 0.0728954 -0.0178594 0.103107c-0.0016199,0.00903093 0.00194388,0.0181024 0.00935491,0.023124 0.00409024,0.00295631 0.00903093,0.00465721 0.0138096,0.00465721 0.00400925,0 0.00765402,-0.00105293 0.0110963,-0.00267283l0.0925772 -0.0489209 0.0923747 0.0489209c0.00376626,0.0015794 0.007978,0.00267283 0.0113393,0.00267283 0.0121492,0.000283482 0.0238125,-0.0103269 0.0238125,-0.0237315 0,-0.00299681 -0.000647959,-0.0064391 -0.0016604,-0.00915243l-0.0171304 -0.0980039 0.0750418 -0.0728954c0.00623661,-0.00615561 0.00870695,-0.015551 0.00595313,-0.024258z"/>
    <path id="_559660832" class="fil1" d="M1.68769 0.879362l-0.0948046 -0.0137691 -0.0424008 -0.0858546 -0.0425223 0.0858141 -0.0948046 0.0138501 0.0688457 0.0669018 -0.0164015 0.0947641 0.0849637 -0.0449117 0.0848017 0.0449522 -0.0165635 -0.0947641 0.0688862 -0.0669828zm0.0525657 -0.0170899c-0.00267283,-0.00826148 -0.0100029,-0.0147006 -0.0191148,-0.016037l-0.103269 -0.0150246 -0.0462886 -0.0936706c-0.007978,-0.016118 -0.0345038,-0.016118 -0.0421984,0l-0.0463696 0.0936706 -0.103431 0.0151056c-0.00886894,0.00129592 -0.016118,0.00773501 -0.0191553,0.016037 -0.00255134,0.00870695 -0.000242985,0.0181024 0.00603412,0.024177l0.0751228 0.0728954 -0.0178999 0.103107c-0.0015794,0.00903093 0.00198438,0.0181024 0.00939541,0.023124 0.00409024,0.00295631 0.00903093,0.00465721 0.0137691,0.00465721 0.00400925,0 0.00765402,-0.00105293 0.0111368,-0.00267283l0.0925772 -0.0489209 0.0923342 0.0489209c0.00376626,0.0015794 0.007978,0.00267283 0.0113798,0.00267283 0.0121087,0.000283482 0.0238125,-0.0103269 0.0238125,-0.0237315 0,-0.00299681 -0.000647959,-0.0064391 -0.0016604,-0.00915243l-0.0171709 -0.0980039 0.0750418 -0.0728954c0.00623661,-0.00615561 0.00870695,-0.015551 0.00595313,-0.024258z"/>
   </g>
  </g>
 </g>
</svg>
