<?xml version="1.0" encoding="UTF-8"?>
<!DOCTYPE svg PUBLIC "-//W3C//DTD SVG 1.1//EN" "http://www.w3.org/Graphics/SVG/1.1/DTD/svg11.dtd">
<!-- Creator: CorelDRAW -->
<svg xmlns="http://www.w3.org/2000/svg" xml:space="preserve" width="95px" height="95px" style="shape-rendering:geometricPrecision; text-rendering:geometricPrecision; image-rendering:optimizeQuality; fill-rule:evenodd; clip-rule:evenodd"
viewBox="0 0 4.05843 4.05843"
 xmlns:xlink="http://www.w3.org/1999/xlink">
 <defs>
  <style type="text/css">
   <![CDATA[
    .fil0 {fill:#FEFEFE}
    .fil1 {fill:#004CD2}
    .fil2 {fill:#FCDB17}
   ]]>
  </style>
 </defs>
 <g id="Layer_x0020_1">
  <metadata id="CorelCorpID_0Corel-Layer"/>
  <g id="_765476040">
   <circle id="_471542848" class="fil0" cx="2.02921" cy="2.02921" r="2.02927"/>
   <path id="_471545776" class="fil1" d="M1.43396 2.95456c-0.0334536,0 -0.0553523,-0.00262381 -0.0562101,-0.00282564 -0.0147842,-0.00186694 -0.0269445,-0.0122108 -0.031183,-0.0262886 -0.00428892,-0.0142291 0,-0.0296188 0.011353,-0.0393572 0.092893,-0.0806317 0.0983424,-0.158488 0.0939021,-0.196533l-0.107021 0c-0.392007,0 -0.581477,-0.29644 -0.581477,-0.792895 0,-0.496405 0.189469,-0.792794 0.581477,-0.792794l1.36902 0c0.391856,0 0.581325,0.29644 0.581325,0.792794 0,0.496455 -0.189469,0.792895 -0.581325,0.792895l-0.873577 0c-0.0627192,0.238464 -0.302697,0.265005 -0.406287,0.265005l0 0zm-0.0375407 -0.0445543c0.0124631,0.0009587 0.0253803,0.00111007 0.0375407,0.00111007 0.162222,0 0.319146,-0.0611045 0.364256,-0.23256l0.00847693 -0.0324444 0.907082 0c0.432121,0 0.537932,-0.382723 0.537932,-0.749451 0,-0.366678 -0.10581,-0.7493 -0.537932,-0.7493l-1.36897 0c-0.432121,0 -0.538033,0.382572 -0.538033,0.7493 0,0.366829 0.105861,0.749451 0.538033,0.749451l0.145621 0 0.00454121 0.0384489c0.0103943,0.0882509 -0.0355728,0.167419 -0.0985443,0.225496l0 0 0 -5.04579e-005z"/>
   <path id="_471551776" class="fil1" d="M1.64417 2.01534c-0.00312839,-0.00953654 -0.0116053,-0.0169539 -0.022151,-0.0184676l-0.119383 -0.017408 -0.0535358 -0.108333c-0.00918334,-0.018619 -0.0398617,-0.018619 -0.0487423,0l-0.0536367 0.108333 -0.119585 0.0174584c-0.0101925,0.00151374 -0.0185685,0.00893105 -0.0221006,0.018518 -0.00292656,0.0100916 -0.000353205,0.02094 0.00691273,0.0280041l0.086838 0.0842647 -0.0206373 0.119182c-0.00186694,0.0104448 0.00232106,0.02094 0.0108484,0.0267427 0.00474304,0.00343114 0.0104448,0.00534854 0.0159952,0.00534854 0.00464213,0 0.00877967,-0.00121099 0.0128163,-0.00312839l0.107021 -0.0565128 0.106769 0.0565128c0.00433938,0.00186694 0.00923379,0.00312839 0.0131695,0.00312839 0.0139768,0.000353205 0.02755,-0.0119585 0.02755,-0.0274491 0,-0.00348159 -0.000756868,-0.00746777 -0.0019174,-0.0105962l-0.01983 -0.113278 0.0867371 -0.0843151c0.00721548,-0.00711456 0.0100411,-0.0179126 0.00691273,-0.0280546l-5.04579e-005 0 0 5.04579e-005z"/>
   <polygon id="_471551800" class="fil2" points="1.58342,2.03512 1.47377,2.01917 1.42473,1.91992 1.37558,2.01917 1.26599,2.03522 1.34556,2.11252 1.32659,2.22206 1.42483,2.17014 1.52292,2.22212 1.5038,2.11257 "/>
   <path id="_471551848" class="fil1" d="M2.25007 2.01534c-0.00307793,-0.00953654 -0.0116053,-0.0169539 -0.0221006,-0.0184676l-0.119434 -0.017408 -0.0534854 -0.108333c-0.00923379,-0.018619 -0.0399122,-0.018619 -0.0487928,0l-0.0535863 0.108333 -0.119636 0.0174584c-0.0101925,0.00151374 -0.018619,0.00893105 -0.0221006,0.018518 -0.00297702,0.0100916 -0.000353205,0.02094 0.00696319,0.0280041l0.0867876 0.0842647 -0.0205868 0.119182c-0.00196786,0.0104448 0.00222015,0.02094 0.010798,0.0267427 0.00474304,0.00343114 0.0104448,0.00534854 0.0159447,0.00534854 0.00464213,0 0.00888059,-0.00121099 0.0128668,-0.00312839l0.107021 -0.0565128 0.106819 0.0565128c0.00433938,0.00186694 0.00918334,0.00312839 0.0130686,0.00312839 0.0140778,0.000353205 0.02755,-0.0119585 0.02755,-0.0274491 0,-0.00348159 -0.000756868,-0.00746777 -0.0019174,-0.0105962l-0.0197795 -0.113278 0.0867371 -0.0843151c0.00721548,-0.00711456 0.0100916,-0.0179126 0.00686227,-0.0280546l0 0 0 5.04579e-005z"/>
   <polygon id="_471544600" class="fil2" points="2.18932,2.03512 2.07967,2.01917 2.03063,1.91992 1.98143,2.01917 1.87184,2.03522 1.95146,2.11252 1.93249,2.22206 2.03078,2.17014 2.12882,2.22212 2.10964,2.11257 "/>
   <path id="_471551296" class="fil1" d="M2.86197 2.01534c-0.00312839,-0.00953654 -0.0116053,-0.0169539 -0.0221006,-0.0184676l-0.119434 -0.017408 -0.0534854 -0.108333c-0.00923379,-0.018619 -0.0399122,-0.018619 -0.0487928,0l-0.0536367 0.108333 -0.119585 0.0174584c-0.010243,0.00151374 -0.018619,0.00893105 -0.0221006,0.018518 -0.00297702,0.0100916 -0.000302747,0.02094 0.00696319,0.0280041l0.086838 0.0842647 -0.0206877 0.119182c-0.00181648,0.0104448 0.00232106,0.02094 0.0108484,0.0267427 0.00474304,0.00343114 0.0104448,0.00534854 0.0159447,0.00534854 0.00464213,0 0.00888059,-0.00121099 0.0128668,-0.00312839l0.107072 -0.0565128 0.106718 0.0565128c0.00438984,0.00186694 0.00923379,0.00312839 0.0131695,0.00312839 0.0139768,0.000353205 0.02755,-0.0119585 0.02755,-0.0274491 0,-0.00348159 -0.000756868,-0.00746777 -0.0019174,-0.0105962l-0.0198804 -0.113278 0.0867876 -0.0843151c0.00721548,-0.00711456 0.0100411,-0.0179126 0.00691273,-0.0280546l-5.04579e-005 0 0 5.04579e-005z"/>
   <polygon id="_471542704" class="fil2" points="2.80117,2.03512 2.69158,2.01917 2.64253,1.91992 2.59338,2.01917 2.48379,2.03522 2.56336,2.11252 2.54439,2.22206 2.64263,2.17014 2.74067,2.22212 2.72155,2.11257 "/>
   <path id="_471550840" class="fil1" d="M1.94278 1.53957c-0.00307793,-0.009587 -0.0116053,-0.0170043 -0.0221006,-0.0185685l-0.119434 -0.0173575 -0.0534854 -0.108283c-0.00923379,-0.0186694 -0.0399627,-0.0186694 -0.0487928,0l-0.0536367 0.108283 -0.119585 0.0174584c-0.0101925,0.00151374 -0.018619,0.00893105 -0.0221006,0.0185685 -0.00292656,0.0100411 -0.000353205,0.0208896 0.00696319,0.0279537l0.086838 0.0842647 -0.0206373 0.119182c-0.0019174,0.0104448 0.00222015,0.02094 0.010798,0.0267427 0.00474304,0.00343114 0.0104448,0.00539899 0.0159952,0.00539899 0.00459167,0 0.00883013,-0.00121099 0.0128163,-0.00312839l0.107021 -0.0565128 0.106819 0.0565128c0.00433938,0.00186694 0.00923379,0.00312839 0.0130686,0.00312839 0.0140778,0.000302747 0.02755,-0.012009 0.02755,-0.0274491 0,-0.00353205 -0.000756868,-0.00751823 -0.0019174,-0.0105962l-0.0197795 -0.113278 0.0867371 -0.0843151c0.00721548,-0.00716502 0.0100916,-0.0180135 0.00691273,-0.0280041l-5.04579e-005 0 0 0z"/>
   <polygon id="_471546040" class="fil2" points="1.88203,1.5593 1.77238,1.54341 1.72334,1.4441 1.67414,1.54336 1.56455,1.55935 1.64417,1.6367 1.6252,1.74625 1.72344,1.69438 1.82153,1.7463 1.80236,1.63675 "/>
   <path id="_471551872" class="fil1" d="M2.55463 1.53957c-0.00307793,-0.009587 -0.0115549,-0.0170043 -0.0221006,-0.0185685l-0.119383 -0.0173575 -0.0535358 -0.108283c-0.00923379,-0.0186694 -0.0398617,-0.0186694 -0.0487423,0l-0.0536367 0.108283 -0.119585 0.0174584c-0.010243,0.00151374 -0.018619,0.00893105 -0.022151,0.0185685 -0.00292656,0.0100411 -0.000252289,0.0208896 0.00701365,0.0279537l0.086838 0.0842647 -0.0206877 0.119182c-0.00181648,0.0104448 0.00227061,0.02094 0.0108484,0.0267427 0.00474304,0.00343114 0.0104448,0.00539899 0.0159447,0.00539899 0.00464213,0 0.00883013,-0.00121099 0.0128668,-0.00312839l0.107021 -0.0565128 0.106769 0.0565128c0.00433938,0.00186694 0.00923379,0.00312839 0.0131695,0.00312839 0.0139768,0.000302747 0.02755,-0.012009 0.02755,-0.0274491 0,-0.00353205 -0.000756868,-0.00751823 -0.00196786,-0.0105962l-0.01983 -0.113278 0.0867876 -0.0843151c0.00716502,-0.00716502 0.0100411,-0.0180135 0.00686227,-0.0280041l-5.04579e-005 0 0 0z"/>
   <polygon id="_471545752" class="fil2" points="2.49388,1.5593 2.38429,1.54341 2.33524,1.4441 2.2861,1.54336 2.17645,1.55935 2.25607,1.6367 2.2371,1.74625 2.33534,1.69438 2.43338,1.7463 2.41421,1.63675 "/>
  </g>
 </g>
</svg>
