<?xml version="1.0" encoding="UTF-8"?>
<!DOCTYPE svg PUBLIC "-//W3C//DTD SVG 1.1//EN" "http://www.w3.org/Graphics/SVG/1.1/DTD/svg11.dtd">
<!-- Creator: CorelDRAW -->
<svg xmlns="http://www.w3.org/2000/svg" xml:space="preserve" width="75px" height="75px" style="shape-rendering:geometricPrecision; text-rendering:geometricPrecision; image-rendering:optimizeQuality; fill-rule:evenodd; clip-rule:evenodd"
viewBox="0 0 2.99051 2.99051"
 xmlns:xlink="http://www.w3.org/1999/xlink">
 <defs>
  <style type="text/css">
   <![CDATA[
    .fil0 {fill:none}
    .fil1 {fill:#BDBFC1}
   ]]>
  </style>
 </defs>
 <g id="Layer_x0020_1">
  <metadata id="CorelCorpID_0Corel-Layer"/>
  <rect class="fil0" width="2.9905" height="2.9905"/>
  <g id="_559658792">
   <path id="_559660064" class="fil1" d="M1.09754 2.77619l-0.105304 0.00150703c-0.0110202,0.000141284 -0.0217107,-0.00480366 -0.0286336,-0.0135162l-0.00631069 -0.00833576c-0.00343791,-0.00456819 -0.00673454,-0.00913637 -0.0106434,-0.0130923 -0.0278801,-0.0280213 -0.0438923,-0.0632011 -0.046765,-0.102101 -0.0044269,-0.0564665 -0.0282097,-0.110107 -0.0489785,-0.15739 -0.0232648,-0.0527932 -0.0456819,-0.109731 -0.07262,-0.184564 -0.00833576,-0.0229351 -0.0142226,-0.0466708 -0.0200623,-0.070595 -0.00254311,-0.00984279 -0.00499204,-0.0196385 -0.00753515,-0.0294813 -0.00207217,-0.00277859 -0.00485075,-0.00607522 -0.00555717,-0.00725258l-0.00400305 -0.0062165c-0.00593393,-0.00894799 -0.0115382,-0.0180844 -0.0157296,-0.0278801 -0.0070642,-0.015918 -0.0131394,-0.0319773 -0.0190734,-0.0480837l-0.00649907 -0.0170012c-0.00183669,-0.00503913 -0.00400305,-0.00988989 -0.00631069,-0.0148819 -0.00579265,-0.0133749 -0.012433,-0.028351 -0.0153058,-0.0455406 -0.0127156,-0.0776121 -0.0259963,-0.160357 -0.0358862,-0.243103 -0.00518042,-0.0422439 -0.0088538,-0.0914108 0.0107376,-0.141331 -0.000188379,-0.000612231 -0.000894799,-0.00626359 -0.00551008,-0.0202036 -0.000282568,4.70947e-005 -0.00070642,0.000188379 -0.000894799,0.000282568 -0.0316476,0.011915 -0.0640959,0.0189792 -0.097486,0.0258079 -0.0181786,0.00329663 -0.0436097,-0.00423852 -0.0578323,-0.0168128 -0.0244421,-0.0218519 -0.0475656,-0.0449754 -0.0703124,-0.0681931 -0.00842995,-0.00838286 -0.016389,-0.0171896 -0.024348,-0.0261376 -0.00762934,-0.00852414 -0.0153529,-0.0169541 -0.0232648,-0.0249602 -0.0120091,-0.0120091 -0.0425736,-0.0425736 -0.0191675,-0.0827454 0.00244892,-0.00409724 0.00494494,-0.00758225 0.00777062,-0.0105963 -0.0301406,-0.0250544 -0.05171,-0.0558543 -0.0671099,-0.0799668 -0.00546298,-0.00871252 -0.00715839,-0.0193088 -0.00437981,-0.0291516 0.00273149,-0.00984279 0.00965441,-0.0180844 0.0189321,-0.0226055 0.00697002,-0.00324953 0.0137517,-0.00593393 0.0204391,-0.00866542 0.00616941,-0.00254311 0.0158238,-0.0062165 0.0179902,-0.00847705 0.0220403,-0.0228409 0.0484604,-0.0345675 0.0808616,-0.035792l0.0383822 -0.00113027c0.0296697,-0.000753515 0.0591509,-0.00155412 0.0883497,-0.00405014 -0.00598103,-0.00927766 -0.0123859,-0.0155412 -0.0191675,-0.0222287l-0.00857123 -0.00847705c-0.0176605,-0.0179902 -0.0401247,-0.0456819 -0.0401247,-0.0855711 -0.0120562,-0.0106905 -0.0156825,-0.0227938 -0.0164831,-0.0301877 -0.0017896,-0.0128098 0.00080061,-0.0320244 0.0227938,-0.0509565 0.0284452,-0.0243009 0.0580678,-0.0470947 0.0882555,-0.0690408 0.0135633,-0.00984279 0.0292929,-0.0115382 0.0373932,-0.0116795 0.0070642,-4.70947e-005 0.0136104,0.000753515 0.0197327,0.00273149 0.00946603,0.00287278 0.0137046,0.00334372 0.0154942,0.00339082 0,-0.000329663 0.00240183,-0.00240183 0.00701711,-0.00819448 0.0115853,-0.0143639 0.0214752,-0.0300464 0.0312238,-0.045729 0.0175192,-0.0277859 0.038806,-0.0540647 0.0801552,-0.061647 0.00240183,-0.000423852 0.00838286,-0.00419143 0.0121033,-0.00857123 0.0331076,-0.0411137 0.0683815,-0.0731381 0.107847,-0.0978628l0.0379112 -0.0207217 -0.0339082 0.0118679c-0.0116795,-0.033296 -0.00141284,-0.0639546 0.0260434,-0.080061l-0.0340966 -0.0213339c-0.0286336,-0.0177076 -0.0449754,-0.0448812 -0.0470005,-0.0786481l-0.00070642 -0.00970151c-0.000847705,-0.0152587 -0.00155412,-0.0297168 -0.00494494,-0.0418201 -0.00993698,-0.0350855 -0.00574555,-0.0648494 0.0128098,-0.0938126 0.00249602,-0.00381467 0.00744096,-0.0116324 -0.0062165,-0.0246305 -0.0130452,-0.0123388 -0.0222758,-0.026373 -0.02934,-0.0372048 -0.0221345,-0.0351797 -0.0138929,-0.0726671 0.021381,-0.0958377 0.007959,-0.00527461 0.0155883,-0.0111143 0.0230764,-0.0169541l0.0112556 -0.00861833c0.00602812,-0.00452109 0.0133749,-0.00697002 0.0210042,-0.00715839l0.164549 -0.00244892c0.0121975,-0.000141284 0.0235944,0.00579265 0.0303761,0.015918 0.0187437,0.0278801 0.0339553,0.0384764 0.0565607,0.0389473 0.0218048,0.000470947 0.0520396,0.00758225 0.0717252,0.0262317 0.024348,0.0228409 0.0541118,0.033296 0.0997937,0.0349914 0.0201094,0.00070642 0.041302,0.00682873 0.0595748,0.0172367 0.0202507,0.0113498 0.0333901,0.0302348 0.0357449,0.05171 0.00273149,0.0229351 -0.00668745,0.0461999 -0.025855,0.0640488 -0.00673454,0.00602812 -0.0133749,0.0154471 -0.0200152,0.028351 -0.0108318,0.0209571 -0.0274562,0.045729 -0.0580678,0.0593393 0.00070642,0.00720549 0.00193088,0.0117737 0.00310825,0.0145523 0.0231706,0.0565607 0.0198269,0.0953668 -0.0140342,0.127768l0.00230764 0.00235473c0.0132336,0.0126685 0.0268911,0.0258079 0.038288,0.0424794l0.0123859 0.0190734c0.0150232,0.0235003 0.0279272,0.0437981 0.0487901,0.0553363 0.0276917,0.0152116 0.0257137,0.0548653 0.0205804,0.0705008 -0.00513332,0.0162006 -0.0123859,0.0319302 -0.0195914,0.0475656l-0.00748806 0.0164831c-0.00070642,0.00164831 -0.00141284,0.00315534 -0.0017896,0.004474 0.00164831,0.00117737 0.00395595,0.0026844 0.00678164,0.00452109 0.0171896,0.0112556 0.0314593,0.0244421 0.0455877,0.037299 0.00847705,0.00777062 0.0169541,0.0156825 0.0261376,0.022888 0.00871252,0.00687583 0.0210042,0.0125272 0.033814,0.018414 0.00814738,0.00376758 0.0148348,0.00602812 0.0215223,0.00842995 0.00734677,0.00254311 0.0147406,0.00518042 0.0220874,0.00824157 0.0214281,0.00937184 0.0410195,0.016907 0.0631069,0.0165773 0.000894799,-4.70947e-005 0.0124801,-0.000518042 0.0133278,-0.000518042 0.0352739,-0.000565136 0.0695118,0.016389 0.0896683,0.0324953 0.0369222,0.0290103 0.0780359,0.042291 0.129039,0.0415846 9.41894e-005,0 0.000188379,0 0.000329663,0 0.0209571,-0.000329663 0.0336727,0.00329663 0.0440335,0.00631069l0.00819448 0.00221345c0.00503913,0.00127156 0.0097957,0.00287278 0.0143639,0.00470947 0.00310825,0.00108318 0.00668745,0.00240183 0.00833576,0.00254311 0.00122446,0.000235473 0.00230764,0.000329663 0.00334372,0.000470947 -0.000329663,-0.000894799 -0.000659326,-0.0017896 -0.000988989,-0.00287278 -0.0178018,-0.0523693 -0.00155412,-0.0866071 0.0151174,-0.106199 0.0162948,-0.0192617 0.048743,-0.0334372 0.0717252,-0.030329 0.0324012,0.00400305 0.0520396,0.0384293 0.0573142,0.0488372 0.00673454,0.013422 0.0088538,0.0272207 0.0105963,0.0383822 0.00070642,0.00470947 0.00136575,0.00970151 0.00259021,0.0142697 0.00108318,0 0.00211926,0 0.00306116,0 0.0526519,-0.00080061 0.107988,-0.00555717 0.16356,-0.0105963 0.00188379,-0.000141284 0.00673454,-0.00207217 0.0102666,-0.00329663 0.000659326,-0.000376758 0.00150703,-0.000659326 0.00211926,-0.000941894 -0.00847705,-0.0088538 -0.0257137,-0.028351 -0.0214281,-0.0536409 0.0044269,-0.0270324 0.0296226,-0.0396537 0.0391357,-0.0443632 0.0178489,-0.0089009 0.0368751,-0.016436 0.0562311,-0.0224171 0.0356507,-0.0110202 0.0552892,-0.0287749 0.064143,-0.0575968 0.0103137,-0.0340966 0.042291,-0.0493552 0.0754457,-0.033814 0.00861833,0.0017896 0.0135633,-0.00169541 0.0192617,-0.00725258 0.0128098,-0.0127627 0.0281626,-0.0282097 0.0508152,-0.0285394 0.0102195,-0.000141284 0.023359,0.00273149 0.0356507,0.0143639 0.0223229,-0.0070642 0.041773,-0.00306116 0.0548653,0.0105492 0.0141755,0.0145523 0.0152116,0.0344262 0.0145994,0.0484604 0.0284923,0.00659326 0.0470947,0.0316476 0.0532641,0.0476598 0.00791191,0.0207688 0.00715839,0.0429033 0.00649907,0.0607522 -0.00136575,0.0349914 -0.0237828,0.0608463 -0.0602341,0.0697943 -0.0181315,0.00452109 -0.0291987,0.0138929 -0.0376758,0.0324953 -0.0101254,0.0222758 -0.0276917,0.0395125 -0.0433271,0.0534996 -0.0194972,0.0172367 -0.0259021,0.0325424 -0.0225584,0.0546298 0.0026373,0.0190263 -0.00216636,0.0365926 -0.00593393,0.050721 -0.00461528,0.0170954 -0.00810029,0.0284923 -0.0115853,0.039795 -0.00405014,0.0131394 -0.00805319,0.0260905 -0.0113498,0.0392299 -0.0130452,0.0546298 -0.0521809,0.0609876 -0.068617,0.0613173 -0.000518042,0 -0.00145994,0 -0.00254311,-9.41894e-005 -0.00334372,0.0189321 -0.00518042,0.0365455 -0.00682873,0.0541589 -0.00409724,0.044269 -0.0222287,0.084064 -0.0575026,0.125178 -0.0101725,0.0116324 -0.0264672,0.0156354 -0.0405956,0.00998408 -0.0140813,-0.00565136 -0.0232648,-0.0195914 -0.0225113,-0.0348972l0.00207217 -0.0445045c0.000612231,-0.0151174 0.00155412,-0.0302348 0.00188379,-0.0453051 -0.00762934,0.00197798 -0.0170483,0.00249602 -0.0281155,0.000941894 -0.00414433,-0.000470947 -0.007959,-0.00131865 -0.0120562,-0.00244892l-0.014929 -0.00254311c-0.0181315,-0.00230764 -0.0486017,-0.00631069 -0.0506739,-0.0376758 -0.00160122,-0.0239712 -0.00202507,-0.049214 0.00913637,-0.0723375 0.00880671,-0.0181315 0.023877,-0.030329 0.0360745,-0.0401247 0.00348501,-0.00287278 0.00697002,-0.00560427 0.0102666,-0.00861833 0.000988989,-0.000894799 0.00207217,-0.0017425 0.00306116,-0.0026844 -0.029858,0 -0.0564194,0.000282568 -0.0839227,0.00150703l-0.00847705 0.000235473c-0.0521338,0.00070642 -0.0766231,-0.0199682 -0.0877845,-0.0739387 -0.000376758,-0.00277859 -0.00108318,-0.00555717 -0.00141284,-0.00838286 -0.00654616,-9.41894e-005 -0.0130923,-0.000612231 -0.0194501,-0.00164831 0.000565136,0.00080061 0.00131865,0.00164831 0.00188379,0.00244892 0.0141284,0.0222287 0.0111614,0.0404543 0.00805319,0.0493552 -0.00254311,0.00729968 -0.00871252,0.019403 -0.0237357,0.0281626 0.0200152,0.0247247 0.0251015,0.0536409 0.0269853,0.0758696l0.000565136 0.00824157c0.00226055,0.0300935 0.00423852,0.0475185 0.0196385,0.0595748 0.0144581,0.0111614 0.0176605,0.0275504 0.0196856,0.0372519 0.00499204,0.0220403 0.00918347,0.0404543 0.013422,0.059198l0.0026373 0.0130452c0.00433271,0.0193088 -0.00753515,0.0383822 -0.026844,0.042762l-0.024866 0.00602812c-0.0235003,0.00588684 -0.0489785,0.0120562 -0.0750219,0.0162006 -0.0253369,0.00381467 -0.0376758,-0.00122446 -0.0481779,-0.00984279 -0.0123388,0.00894799 -0.0244421,0.0178018 -0.0363571,0.0270324 0.00103608,0.0693705 -0.0322599,0.116889 -0.0937184,0.136857 -0.063672,0.020863 -0.106528,0.0698414 -0.143403,0.119856 -0.00499204,0.00649907 -0.0123859,0.016436 -0.0229351,0.0242538 -0.0177547,0.0129981 -0.0357449,0.0258079 -0.0534996,0.0386177l-0.061647 0.04474c-0.0172838,0.0135633 -0.0384293,0.0298109 -0.0669216,0.0337669 -0.00164831,0.00791191 -0.00485075,0.015918 -0.0110202,0.0230293 -0.00659326,0.00734677 -0.0182256,0.0159651 -0.0375816,0.0169541 -0.031836,0.0284452 -0.0688054,0.0407369 -0.0980512,0.0483663l0 0c-0.000423852,0 -0.00113027,0.00428562 0.000423852,0.0123859 0.0026373,0.0144581 0.00452109,0.0291045 0.00631069,0.0436568 0.00131865,0.00904218 0.00221345,0.0181315 0.00376758,0.0271736 0.00150703,0.00988989 0.00273149,0.017425 0.00470947,0.021899 0.00466237,0.011444 0.0147877,0.0348501 0.000565136,0.0570788 -0.00150703,0.00273149 -0.0035321,0.00499204 -0.00555717,0.00729968 0.00659326,0.0332489 -0.00673454,0.0617411 -0.0164831,0.082557 -0.00291987,0.00598103 -0.00574555,0.0120091 -0.00805319,0.0182256 -0.00631069,0.0168599 -0.00946603,0.0366868 -0.011915,0.0555717 -0.00306116,0.0244421 -0.00437981,0.0490256 -0.00419143,0.0727142 0.000282568,0.0340495 -0.0174721,0.0587742 -0.0502971,0.069606 -0.00499204,0.00160122 -0.00970151,0.00372048 -0.014411,0.00560427 -0.0178489,0.00753515 -0.0196385,0.013422 -0.0202036,0.0197798 -0.00405014,0.0387118 -0.0291987,0.0632011 -0.0669216,0.0652732 -0.0017896,0.000141284 -0.00376758,0.000235473 -0.00729968,0.007959l-0.0147406 0.0311296c-0.00659326,0.0122446 -0.0189321,0.0202036 -0.0325424,0.0204391zm0.984797 -1.18999c-0.00400305,-0.0195443 -0.00894799,-0.0389473 -0.0132336,-0.0584445 -0.000470947,-0.00216636 -0.000894799,-0.00692292 -0.00197798,-0.00880671 -0.0319773,-0.0248189 -0.035792,-0.0575968 -0.0383822,-0.0953197l-0.000565136 -0.00824157c-0.00117737,-0.0169541 -0.00503913,-0.0341437 -0.015918,-0.0476598l-0.0369222 -0.045729 0.052228 -0.0306116c9.41894e-005,-0.00117737 -0.00183669,-0.00409724 -0.00282568,-0.00527461l-0.0375345 -0.0507681 0.0419143 -0.0259021 0.0441277 -0.00315534c0.00405014,0.000612231 0.00814738,0.000941894 0.0122917,0.000988989l0.0445516 0.00070642 0.00480366 0.0441748c0.000235473,0.0017425 0.000659326,0.00343791 0.000941894,0.00518042 0.00489785,0.0276446 0.00880671,0.0330134 0.0366868,0.0322599l0.00847705 -0.000235473c0.0284923,-0.00080061 0.0568904,-0.00150703 0.0853356,-0.00150703l0.124895 0 -0.0898567 0.0867484c-0.00145994,0.00141284 -0.00287278,0.00259021 -0.00437981,0.00390886 -0.00395595,0.0035792 -0.007959,0.00682873 -0.0121033,0.0102195 -0.00720549,0.00588684 -0.018414,0.014411 -0.0225584,0.0229822 -0.00489785,0.0101725 -0.00527461,0.0243009 -0.00480366,0.0367339 0.0035321,0.000659326 0.00720549,0.00117737 0.00937184,0.00155412l0.0148819 0.00249602c0.00367339,0.000659326 0.00682873,0.00155412 0.0104079,0.00226055 0.00230764,0.000282568 0.00635778,0.000659326 0.00866542,0.000188379l0.064661 -0.0168599 -0.00150703 0.0667803c-0.000282568,0.0137987 -0.000988989,0.0275504 -0.00164831,0.041302 0.00941894,-0.017425 0.0156354,-0.0362629 0.0176134,-0.0575497 0.0017896,-0.0194972 0.00400305,-0.0388531 0.00739387,-0.058162l0.00805319 -0.0459173 0.0450225 0.00433271c0.0129039,-0.000141284 0.0160593,-0.0118679 0.0187908,-0.022888 0.00343791,-0.0142226 0.00781772,-0.0281155 0.0121033,-0.0421027 0.00390886,-0.0126685 0.00767644,-0.0252899 0.0111143,-0.0380996 0.00235473,-0.0088538 0.00602812,-0.0210984 0.00470947,-0.030329 -0.00593393,-0.0408782 0.00852414,-0.0724787 0.0389473,-0.0995582 0.0113969,-0.0101254 0.0245834,-0.0226996 0.0309412,-0.0367339 0.0145052,-0.0317889 0.0374403,-0.0521809 0.0714897,-0.0605638 0.0127156,-0.00315534 0.0214281,-0.00908928 0.021899,-0.0226996 0.000470947,-0.012433 0.00136575,-0.0290103 -0.00315534,-0.0408311 -0.00240183,-0.00626359 -0.0108318,-0.0149761 -0.0176134,-0.0165773l-0.040784 -0.00946603 0.0017896 -0.0418672c9.41894e-005,-0.00197798 0.000188379,-0.00649907 -0.000282568,-0.00956022 -0.00131865,0.000235473 -0.00273149,0.000612231 -0.0035321,0.000894799l-0.0282568 0.0088538 -0.0217107 -0.0209571c-0.00372048,0.00117737 -0.013422,0.0113027 -0.0162948,0.0140813 -0.0179431,0.0176605 -0.0393712,0.0259492 -0.0647552,0.0207688l-0.00588684 -0.00117737 -0.00546298 -0.00259021c-0.000941894,-0.000423852 -0.00287278,-0.00160122 -0.00400305,-0.00150703 -0.000941894,0.00080061 -0.00141284,0.00324953 -0.0017425,0.00433271 -0.0148348,0.0485075 -0.0499675,0.0764347 -0.097486,0.0911282 -0.0167186,0.00513332 -0.0330605,0.0115853 -0.0486959,0.0193559 -0.00287278,0.00145994 -0.0103137,0.00461528 -0.0119621,0.00744096 0.000612231,0.00301406 0.00612231,0.00828867 0.00824157,0.0105021l0.050721 0.0529344 -0.0687112 0.0289161c-0.0097957,0.0044269 -0.0111143,0.00635778 -0.0267498,0.00758225 -0.0556659,0.00452109 -0.111473,0.0103137 -0.16728,0.0107376 -0.00117737,0 -0.00230764,0 -0.00343791,0l-0.0387589 0 -0.00998408 -0.0374874c-0.0017425,-0.00649907 -0.0026844,-0.0129039 -0.00367339,-0.0195443 -0.00117737,-0.00744096 -0.00240183,-0.0166244 -0.00583974,-0.0234061 -0.00259021,-0.00518042 -0.0128098,-0.0207217 -0.0186024,-0.0214752 -0.00739387,-0.000423852 -0.0221345,0.00734677 -0.0269382,0.012951 -0.0141755,0.0167186 -0.0123859,0.037299 -0.00569846,0.057691l0.00226055 0.0324012 -0.0398892 0.0383351 -0.0187437 -0.00235473c-0.014411,-0.0017896 -0.0154471,-0.00376758 -0.0197798,-0.0053688 -0.00324953,-0.00117737 -0.00659326,-0.00235473 -0.00998408,-0.00329663l-0.00814738 -0.00221345c-0.0112085,-0.00306116 -0.0186495,-0.00475656 -0.0304703,-0.00456819 -0.0603283,0.000847705 -0.11364,-0.0148348 -0.161111,-0.0524635 -0.0151645,-0.0120091 -0.0380054,-0.0217577 -0.0574555,-0.0216165 -0.00565136,0.000188379 -0.00927766,0.000376758 -0.0118679,0.000470947 -0.031318,0.00145994 -0.0570317,-0.00852414 -0.0852414,-0.0205333 -0.0062165,-0.0026844 -0.0127156,-0.00485075 -0.0190734,-0.0071113 -0.0088538,-0.00310825 -0.0173308,-0.0062165 -0.0258079,-0.0101725 -0.0153058,-0.00701711 -0.0306116,-0.0141284 -0.0438923,-0.0245834 -0.0101254,-0.00791191 -0.0195443,-0.0166244 -0.0290103,-0.0252899 -0.012433,-0.0113498 -0.0250544,-0.0230764 -0.0391828,-0.032307 -0.00301406,-0.00202507 -0.00607522,-0.00395595 -0.00899509,-0.00612231l-0.0282097 -0.0207217 0.00951313 -0.0336256c0.00113027,-0.00405014 0.0026844,-0.00781772 0.00437981,-0.0115853l0.00753515 -0.0165302c0.00626359,-0.0137517 0.0128569,-0.0276917 0.017425,-0.0420556 0.000753515,-0.0026844 0.000988989,-0.00899509 0.000141284,-0.0126685 -0.0291045,-0.0170483 -0.0456819,-0.0424794 -0.0637662,-0.0703595l-0.0123859 -0.0191204c-0.00805319,-0.012433 -0.0217577,-0.0240183 -0.0321657,-0.0347088l-0.0376758 -0.0388531 0.0367339 -0.0351326c0.0221345,-0.0211926 0.0130923,-0.0461057 0.00235473,-0.0719136 -0.00390886,-0.00923056 -0.00588684,-0.0193088 -0.00678164,-0.0292458l-0.00339082 -0.0360745 0.0331076 -0.0147406c0.0161535,-0.00715839 0.025855,-0.0211455 0.0337198,-0.0363571 0.007959,-0.0154942 0.017896,-0.0306586 0.0307999,-0.0425265 0.00579265,-0.00522751 0.0107376,-0.0128569 0.0097957,-0.0210042 -0.00070642,-0.00607522 -0.0053688,-0.0106434 -0.0105021,-0.0135162 -0.0108318,-0.00612231 -0.0240654,-0.0103137 -0.0364984,-0.0107847 -0.0504855,-0.0017896 -0.0951784,-0.0133278 -0.132619,-0.0486488 -0.00875961,-0.00824157 -0.0266085,-0.0122917 -0.0381938,-0.0125272 -0.0420556,-0.000894799 -0.0697472,-0.0224171 -0.0929178,-0.0547711l-0.151975 0.00230764 -0.0070642 0.00541589c-0.00857123,0.00659326 -0.0170483,0.0131394 -0.0260434,0.0190734 -0.0116795,0.00767644 -0.0142697,0.0145523 -0.00664035,0.0265143 0.00631069,0.00984279 0.0130452,0.0196856 0.0216165,0.0277859 0.0256666,0.024348 0.0336727,0.0580207 0.0137987,0.0886322 -0.0113027,0.017425 -0.0121975,0.032825 -0.00659326,0.052699 0.00480366,0.0171425 0.00546298,0.0342849 0.00673454,0.0518513l0.00070642 0.00970151c0.00127156,0.0176134 0.00842995,0.0301877 0.0234532,0.0395125l0.104597 0.0655087 -0.0506739 0.0297638 0.0262317 0.0590097 -0.0786952 0.0430446c-0.0364513,0.0199211 -0.0670158,0.0540647 -0.0931533,0.0857123 -0.0154,0.0186495 -0.0189321,0.021899 -0.0420085,0.0261376 -0.0232177,0.00419143 -0.0345204,0.0197798 -0.0463883,0.0387589 -0.00970151,0.0154942 -0.0194501,0.030847 -0.0305645,0.0453522l0 0.0341907 -0.0523693 -0.00197798c-0.00960732,-0.000376758 -0.0193088,-0.00282568 -0.0284923,-0.00565136 -0.00131865,-0.000376758 -0.00277859,-0.000470947 -0.00409724,-0.000470947 -0.00235473,4.70947e-005 -0.00654616,0.000659326 -0.00847705,0.00207217 -0.0291045,0.0211455 -0.057691,0.0430446 -0.0850059,0.0664506 -0.00131865,0.00117737 -0.00508623,0.00470947 -0.00569846,0.00518042l0.016907 0.0150703 4.70947e-005 0.0226055c4.70947e-005,0.0203449 0.0113969,0.0360274 0.0252428,0.0497791l0.00852414 0.00847705c0.00988989,0.0097957 0.0183669,0.018885 0.0259963,0.0306586l0.0456348 0.0704537 -0.0836402 0.00720549c-0.030329,0.0026373 -0.0607522,0.00334372 -0.0911753,0.00423852l-0.0383822 0.00113027c-0.0188379,0.000565136 -0.0329192,0.00668745 -0.0459644,0.0202978 -0.0100312,0.0104079 -0.0224171,0.0149761 -0.0353681,0.0202507 -0.00070642,0.000282568 -0.00141284,0.000565136 -0.00207217,0.000847705 0.0135633,0.019874 0.0289161,0.0386177 0.0474244,0.0540647l0.041302 0.034332 -0.037817 0.0405485c-0.00480366,0.00819448 0.00626359,0.016389 0.011444,0.0216165 0.00866542,0.00871252 0.016907,0.0178018 0.0250544,0.0269382 0.00739387,0.00824157 0.0148348,0.016436 0.0226055,0.0242538 0.0222287,0.0224171 0.0444103,0.0450225 0.0679576,0.0659797 0.00287278,0.00240183 0.0113027,0.00522751 0.0150232,0.00494494 0.0295755,-0.00569846 0.0588213,-0.0122917 0.0871252,-0.0226996 0.00461528,-0.00202507 0.00805319,-0.00273149 0.00965441,-0.00306116l0.0445045 -0.00988989 0.0143168 0.0433271c0.00254311,0.00762934 0.00480366,0.0153529 0.00649907,0.0232648l0.00461528 0.0145994 -0.00654616 0.0166244c-0.0148819,0.0380054 -0.0123859,0.0771411 -0.00762934,0.116795 0.0097486,0.0806261 0.02237,0.160828 0.0356507,0.240936 0.00188379,0.011444 0.00687583,0.0226996 0.0115853,0.0332018 0.00259021,0.00579265 0.00508623,0.0115853 0.00734677,0.0174721l0.00649907 0.0170012c0.00588684,0.0154 0.0115853,0.030847 0.0181786,0.0459173 0.00310825,0.00715839 0.00762934,0.0141284 0.0118679,0.0206275l0.00334372 0.00527461c0.00160122,0.00211926 0.0026373,0.00329663 0.00428562,0.00541589l0.00588684 0.00791191 0.00249602 0.00956022c0.00259021,0.00998408 0.00513332,0.0199682 0.00762934,0.0299522 0.00551008,0.0220403 0.0108789,0.0443161 0.0186024,0.0656971 0.0220874,0.0610818 0.0452109,0.121881 0.0713485,0.181362 0.0247247,0.0562782 0.0483663,0.111803 0.0530757,0.173968 0.00207217,0.0271736 0.0131394,0.0509565 0.0323541,0.0703595 0.00565136,0.00569846 0.0101725,0.0117266 0.0149761,0.0181315l0.00136575 0.0017896 0.089527 -0.00131865 0.0108318 -0.0228409c0.0097957,-0.0206746 0.0257608,-0.0351326 0.0495907,-0.0366868 0.0135162,-0.000894799 0.0186966,-0.00635778 0.0200152,-0.0198269 0.00306116,-0.0316005 0.0231235,-0.0498733 0.0510977,-0.0615057 0.00598103,-0.00244892 0.0118679,-0.00494494 0.0180373,-0.00697002 0.0116324,-0.00376758 0.0156354,-0.00894799 0.0154942,-0.0211926 -0.000235473,-0.0265143 0.00131865,-0.0531699 0.00461528,-0.0794958 0.00287278,-0.0225584 0.00673454,-0.0453993 0.0146935,-0.0667803 0.00282568,-0.00772353 0.00626359,-0.0150703 0.0097957,-0.0224642 0.00739387,-0.0154 0.0160122,-0.0334843 0.0125272,-0.0510036l-0.00470947 -0.0239712 0.016436 -0.0187437c0.000282568,-0.0026844 -0.0026373,-0.00923056 -0.00367339,-0.0116324 -0.00452109,-0.0106905 -0.0062165,-0.0222758 -0.00810029,-0.0336256 -0.00150703,-0.00946603 -0.0026373,-0.0189792 -0.00395595,-0.0284923 -0.00183669,-0.0137046 -0.00334372,-0.0275033 -0.00588684,-0.0411137 -0.00551008,-0.02934 0.00211926,-0.0668745 0.0406427,-0.0715839 0.0267498,-0.00729968 0.0519455,-0.0173308 0.0729968,-0.0360745l0.0132336 -0.0118208 0.0195443 -0.00080061 0.00720549 -0.034803 0.0352268 -0.00494494c0.0157767,-0.00216636 0.0317418,-0.0154471 0.044269,-0.0245834l0.061647 -0.04474c0.0176605,-0.0128569 0.0355565,-0.025384 0.053217,-0.0383822 0.00475656,-0.0035321 0.00899509,-0.00927766 0.0125743,-0.0140342 0.0452109,-0.0600457 0.0939539,-0.113263 0.168034,-0.137422 0.0428091,-0.0139871 0.0595748,-0.0439394 0.0589155,-0.0881613l-0.000376758 -0.0251957 0.019874 -0.0154c0.0123859,-0.00965441 0.0250544,-0.018885 0.0377699,-0.0280684l0.0314593 -0.0226996 0.0296697 0.0246305c0.00240183,0.000470947 0.00645197,-0.00070642 0.0088538,-0.00108318 0.023877,-0.00367339 0.0473773,-0.00965441 0.0708304,-0.0153058l0.0115382 -0.00282568z"/>
   <ellipse id="_559659992" class="fil1" cx="0.88568" cy="1.8458" rx="0.0587638" ry="0.0588488"/>
   <ellipse id="_559659920" class="fil1" cx="1.53107" cy="1.29948" rx="0.0588927" ry="0.0587996"/>
   <ellipse id="_559659848" class="fil1" cx="1.09348" cy="0.877925" rx="0.0589012" ry="0.0587996"/>
   <path id="_559659776" class="fil1" d="M1.15203 2.44822c0.000518042,0.0322599 -0.0252899,0.0588684 -0.057691,0.0593393 -0.0323541,0.000470947 -0.0589155,-0.0253369 -0.0593864,-0.0575968 -0.000518042,-0.032307 0.0253369,-0.0588684 0.0575968,-0.0593393 0.0324482,-0.000470947 0.0590097,0.0253369 0.0594806,0.0575968z"/>
   <ellipse id="_559659704" class="fil1" cx="0.73235" cy="1.35386" rx="0.0589335" ry="0.0588403"/>
   <path id="_559659632" class="fil1" d="M1.25884 1.89335c0.000518042,0.032307 -0.0252899,0.0588213 -0.0577381,0.0593393 -0.0322128,0.000470947 -0.0588684,-0.0252899 -0.0592922,-0.0575497 -0.000565136,-0.032307 0.0253369,-0.0588684 0.0575968,-0.0593864 0.0323541,-0.000470947 0.0589626,0.0253369 0.0594335,0.0575968z"/>
   <path id="_559659560" class="fil1" d="M1.06067 1.5846c0.000423852,0.0324482 -0.0252899,0.0590097 -0.0574084,0.0595277 -0.0324012,0.000470947 -0.0589155,-0.025384 -0.0594335,-0.0577381 -0.000423852,-0.0323541 0.0253369,-0.0589626 0.0575968,-0.0594806 0.0322599,-0.000470947 0.0587271,0.025384 0.0592451,0.057691z"/>
   <ellipse id="_559659488" class="fil1" cx="1.02916" cy="2.12002" rx="0.0587622" ry="0.058652"/>
   <ellipse id="_559659416" class="fil1" cx="1.4397" cy="1.77771" rx="0.0586392" ry="0.0588515"/>
   <circle id="_559659344" class="fil1" cx="1.32379" cy="1.49936" r="0.0588574"/>
   <ellipse id="_559659272" class="fil1" cx="1.83134" cy="1.38782" rx="0.0586884" ry="0.0589008"/>
   <path id="_559659200" class="fil1" d="M2.51594 1.08501c0.000376758,0.0322128 -0.0254782,0.0585858 -0.0575497,0.0591038 -0.0323541,0.000470947 -0.0589155,-0.0251957 -0.0594335,-0.0573613 -0.000376758,-0.0321657 0.025384,-0.0586329 0.057691,-0.059198 0.0321186,-0.000423852 0.05868,0.0252899 0.0592922,0.0574555z"/>
   <ellipse id="_559659128" class="fil1" cx="0.848887" cy="1.08584" rx="0.0589624" ry="0.0588515"/>
   <ellipse id="_559659056" class="fil1" cx="1.25236" cy="1.08584" rx="0.0586392" ry="0.0588515"/>
   <ellipse id="_559658984" class="fil1" cx="1.64753" cy="1.6159" rx="0.0588927" ry="0.0589868"/>
   <ellipse id="_559658888" class="fil1" cx="1.08375" cy="1.29941" rx="0.0588" ry="0.0590022"/>
   <ellipse id="_559658840" class="fil1" cx="1.15478" cy="0.469701" rx="0.0588246" ry="0.0589866"/>
  </g>
 </g>
</svg>
