<?xml version="1.0" encoding="utf-8"?>
<!-- Generator: Adobe Illustrator 16.0.0, SVG Export Plug-In . SVG Version: 6.00 Build 0)  -->
<!DOCTYPE svg PUBLIC "-//W3C//DTD SVG 1.0//EN" "http://www.w3.org/TR/2001/REC-SVG-20010904/DTD/svg10.dtd">
<svg version="1.0" id="Layer_1" xmlns="http://www.w3.org/2000/svg" xmlns:xlink="http://www.w3.org/1999/xlink" x="0px" y="0px"
	 width="61.955px" height="61.951px" viewBox="0 0 61.955 61.951" enable-background="new 0 0 61.955 61.951" xml:space="preserve">
<g>
	<g>
		<path fill="#004CD2" d="M21.224,24.925c-2.246,0-4.072-1.827-4.072-4.071c0-2.247,1.826-4.073,4.072-4.073
			c2.245,0,4.073,1.826,4.073,4.073C25.297,23.099,23.469,24.925,21.224,24.925z M21.224,17.802c-1.684,0-3.053,1.368-3.053,3.053
			c0,1.683,1.369,3.051,3.053,3.051s3.053-1.368,3.053-3.051C24.276,19.17,22.907,17.802,21.224,17.802z"/>
		<path fill="#004CD2" d="M24.478,46.708h-6.816c-0.283,0-0.51-0.229-0.51-0.51V35.91h-2.756c-0.281,0-0.51-0.229-0.51-0.51
			c0-11.508,5.189-11.84,5.78-11.84c0.063,0,0.151,0.012,0.209,0.034c0.008,0.004,0.761,0.292,1.543,0.292
			c0.36,0,0.663-0.06,0.903-0.179c1.973-0.983,7.736-4.36,7.795-4.394c0.158-0.093,0.354-0.093,0.51-0.004
			c0.161,0.091,0.258,0.262,0.258,0.442v3.968c0,0.181-0.095,0.349-0.251,0.44l-5.645,3.322v18.718
			C24.988,46.479,24.761,46.708,24.478,46.708z M18.171,45.689h5.797V27.19c0-0.182,0.096-0.349,0.251-0.441l5.646-3.321V20.64
			c-1.652,0.963-5.503,3.188-7.088,3.979c-0.383,0.191-0.839,0.286-1.358,0.286c-0.802,0-1.549-0.233-1.813-0.324
			c-0.279,0.016-1.312,0.157-2.336,1.324c-1.046,1.187-2.283,3.707-2.36,8.985h2.753c0.281,0,0.51,0.227,0.51,0.51V45.689z"/>
		<path fill="#004CD2" d="M21.224,46.434c-0.282,0-0.51-0.229-0.51-0.51V35.73c0-0.283,0.228-0.51,0.51-0.51
			c0.281,0,0.511,0.227,0.511,0.51v10.193C21.734,46.205,21.505,46.434,21.224,46.434z"/>
		<path fill="#004CD2" d="M17.661,39.497c-0.283,0-0.51-0.227-0.51-0.51V28.793c0-0.281,0.227-0.51,0.51-0.51
			c0.281,0,0.51,0.229,0.51,0.51v10.194C18.171,39.27,17.942,39.497,17.661,39.497z"/>
	</g>
	<g>
		<path fill="#004CD2" d="M39.525,24.925c-2.246,0-4.074-1.827-4.074-4.071c0-2.247,1.828-4.073,4.074-4.073
			c2.245,0,4.072,1.826,4.072,4.073C43.598,23.099,41.771,24.925,39.525,24.925z M39.525,17.802c-1.685,0-3.054,1.368-3.054,3.053
			c0,1.683,1.369,3.051,3.054,3.051c1.684,0,3.052-1.368,3.052-3.051C42.577,19.17,41.209,17.802,39.525,17.802z"/>
		<path fill="#004CD2" d="M43.088,46.708h-6.819c-0.279,0-0.509-0.229-0.509-0.51V27.481l-5.646-3.322
			c-0.154-0.092-0.25-0.259-0.25-0.44v-3.968c0-0.18,0.098-0.351,0.258-0.442c0.156-0.092,0.352-0.089,0.51,0.004
			c0.058,0.034,5.822,3.41,7.794,4.394c0.241,0.12,0.545,0.179,0.904,0.179c0.789,0,1.534-0.289,1.542-0.291
			c0.052-0.022,0.105-0.034,0.163-0.036c0.001,0,0.003,0,0.003,0c0.343,0,1.817,0.087,3.208,1.673
			c1.718,1.955,2.6,5.325,2.615,10.021c0.013,0.046,0.021,0.096,0.021,0.146c0,0.285-0.221,0.5-0.519,0.51c-0.004,0-0.008,0-0.012,0
			h-2.754v10.289C43.598,46.479,43.37,46.708,43.088,46.708z M36.778,45.689h5.799V35.4c0-0.283,0.229-0.51,0.511-0.51h2.751
			c-0.135-9.677-4.129-10.273-4.696-10.309c-0.265,0.091-1.01,0.324-1.812,0.324c-0.521,0-0.976-0.095-1.358-0.286
			c-1.585-0.791-5.435-3.018-7.088-3.979v2.789l5.644,3.321c0.156,0.092,0.251,0.259,0.251,0.441V45.689z"/>
		<path fill="#004CD2" d="M39.525,46.434c-0.282,0-0.51-0.229-0.51-0.51V35.73c0-0.283,0.228-0.51,0.51-0.51
			c0.28,0,0.509,0.227,0.509,0.51v10.193C40.034,46.205,39.806,46.434,39.525,46.434z"/>
		<path fill="#004CD2" d="M43.088,39.497c-0.282,0-0.511-0.227-0.511-0.51V28.793c0-0.281,0.229-0.51,0.511-0.51
			s0.51,0.229,0.51,0.51v10.194C43.598,39.27,43.37,39.497,43.088,39.497z"/>
	</g>
	<circle fill="#FFD611" cx="30.375" cy="18.625" r="3.384"/>
</g>
</svg>
