<?xml version="1.0" encoding="UTF-8"?>
<!DOCTYPE svg PUBLIC "-//W3C//DTD SVG 1.1//EN" "http://www.w3.org/Graphics/SVG/1.1/DTD/svg11.dtd">
<!-- Creator: CorelDRAW -->
<svg xmlns="http://www.w3.org/2000/svg" xml:space="preserve" width="75px" height="75px" style="shape-rendering:geometricPrecision; text-rendering:geometricPrecision; image-rendering:optimizeQuality; fill-rule:evenodd; clip-rule:evenodd"
viewBox="0 0 3.57249 3.57249"
 xmlns:xlink="http://www.w3.org/1999/xlink">
 <defs>
  <style type="text/css">
   <![CDATA[
    .fil0 {fill:none}
    .fil1 {fill:#BDBFC1}
   ]]>
  </style>
 </defs>
 <g id="Layer_x0020_1">
  <metadata id="CorelCorpID_0Corel-Layer"/>
  <rect class="fil0" x="1.00701e-005" y="1.00701e-005" width="3.57247" height="3.57247"/>
  <g id="_557406624">
   <g>
    <path id="_557407272" class="fil1" d="M2.39441 0.374689l-1.21633 0c-0.0870337,0 -0.158427,0.0711685 -0.158427,0.158427l-5.62597e-005 2.50614c0,0.0872025 0.0714498,0.15854 0.158427,0.15854l1.21639 0c0.0869775,0 0.158427,-0.0711685 0.158427,-0.158484l0 -2.50609c0,-0.0872588 -0.0714498,-0.15854 -0.158427,-0.15854zm0 0.0680742l-1.21633 0c-0.0486646,0 -0.0904093,0.0416884 -0.0904093,0.090353l-5.62597e-005 2.50614c0,0.0485521 0.0408445,0.0905218 0.0904093,0.0905218l1.21639 0c0.049621,0 0.0904093,-0.0408445 0.0904093,-0.0904656l0 -2.50609c0,-0.0495648 -0.0408445,-0.0904656 -0.0904093,-0.0904656z"/>
    <path id="_557407128" class="fil1" d="M2.28949 2.6451l0 -1.79789 -1.0066 0 0 1.79789 1.0066 0zm0.0680742 0.0680742l0 -1.93404 -1.14269 0 0 1.93404 1.14269 0z"/>
    <path id="_557407008" class="fil1" d="M1.78613 2.95555c0.0156964,0 0.0282986,-0.0125459 0.0282986,-0.0282424 0,-0.0157527 -0.0125459,-0.0282424 -0.0282986,-0.0282424 -0.0156964,0 -0.0281298,0.0126022 -0.0281298,0.0282424 0,0.0155839 0.0124334,0.0282424 0.0281298,0.0282424zm0 0.0510275c-0.04377,0 -0.0791574,-0.0354436 -0.0791574,-0.0792699 0,-0.0439388 0.0354436,-0.0792136 0.0791574,-0.0792136 0.0439388,0 0.0792699,0.0353311 0.0792699,0.0792136 5.62597e-005,0.04377 -0.0353311,0.0792699 -0.0792699,0.0792699z"/>
    <rect id="_557406840" class="fil1" transform="matrix(1.69519E-015 -0.168291 0.9257 6.44608E-014 1.59908 0.641774)" width="0.404282" height="0.404282" rx="0.0340371" ry="0.0340371"/>
   </g>
   <path id="_557406672" class="fil1" d="M2.07058 1.57949c0.030549,0.0176655 0.0488897,0.049396 0.0488897,0.0847271 0,0.0352748 -0.0183407,0.0670615 -0.0488897,0.0846708 -0.156964,0.0906906 -0.313929,0.181269 -0.47095,0.271903 -0.0149088,0.00855147 -0.0316742,0.013221 -0.0488897,0.013221 -0.0172155,0 -0.0339808,-0.00466955 -0.0488897,-0.013221 -0.030549,-0.0177218 -0.0488897,-0.0494523 -0.0488897,-0.0847271l0 -0.54375c0,-0.0352748 0.0183407,-0.0670615 0.0488897,-0.0847271 0.0149088,-0.00860773 0.0316742,-0.013221 0.0489459,-0.013221 0.0172155,0 0.0339808,0.00466955 0.0488334,0.013221l0.47095 0.271903zm-0.159665 0.199272l-0.0763444 -0.0764006 -0.277079 0.277079c0.00523215,-0.000843895 0.0103518,-0.0026442 0.0151901,-0.00540093 0.112744,-0.0650924 0.225489,-0.130185 0.338233,-0.195277zm-0.0763444 -0.152745l0.0764006 -0.0764006 -0.338289 -0.195221c-0.00483833,-0.00281298 -0.0100142,-0.00461329 -0.0151901,-0.00545719 0.0923221,0.0923221 0.184701,0.184701 0.277079,0.277079zm-0.325068 -0.248724c-0.00174405,0.00478207 -0.00258795,0.00984544 -0.00258795,0.0150213l0 0.54375c0,0.00517589 0.000843895,0.0102393 0.00258795,0.0150213l0.286868 -0.286868c-0.0956415,-0.0956415 -0.191227,-0.191283 -0.286868,-0.286924zm0.449852 0.200341l-0.0865836 0.0865836 0.0865836 0.0865836 0.0842207 -0.0486646c0.0137836,-0.00793261 0.0219413,-0.0219975 0.0219413,-0.037919 0,-0.0159215 -0.00815765,-0.0300427 -0.0219413,-0.0379753l-0.0842207 -0.0486084z"/>
  </g>
 </g>
</svg>
