<?xml version="1.0" encoding="UTF-8"?>
<!DOCTYPE svg PUBLIC "-//W3C//DTD SVG 1.1//EN" "http://www.w3.org/Graphics/SVG/1.1/DTD/svg11.dtd">
<!-- Creator: CorelDRAW -->
<svg xmlns="http://www.w3.org/2000/svg" xml:space="preserve" width="95px" height="95px" style="shape-rendering:geometricPrecision; text-rendering:geometricPrecision; image-rendering:optimizeQuality; fill-rule:evenodd; clip-rule:evenodd"
viewBox="0 0 4.23199 4.23199"
 xmlns:xlink="http://www.w3.org/1999/xlink">
 <defs>
  <style type="text/css">
   <![CDATA[
    .fil0 {fill:#FEFEFE}
    .fil1 {fill:#004CD2}
    .fil2 {fill:#FCDB17}
   ]]>
  </style>
 </defs>
 <g id="Layer_x0020_1">
  <metadata id="CorelCorpID_0Corel-Layer"/>
  <g id="_765493464">
   <g id="_294926288">
    <g id="_471551584">
     <circle id="_471541648" class="fil0" cx="2.116" cy="2.116" r="2.11602"/>
     <g>
      <g>
       <path id="_471548920" class="fil1" d="M2.65804 0.857953l-1.0841 0c-0.0775557,0 -0.141168,0.063402 -0.141168,0.141221l-5.26158e-005 2.23354c0,0.0777135 0.0636125,0.141326 0.141221,0.141326l1.0841 0c0.077503,0 0.141168,-0.0634546 0.141168,-0.141273l0 -2.23354c0,-0.0777661 -0.0636651,-0.141273 -0.141168,-0.141273zm0 0.060666l-1.0841 0c-0.0433554,0 -0.0805548,0.0371994 -0.0805548,0.0805548l-5.26158e-005 2.23359c0,0.0432502 0.0364101,0.08066 0.0806074,0.08066l1.0841 0c0.0441973,0 0.0805548,-0.0364101 0.0805548,-0.0806074l0 -2.23359c0,-0.0441973 -0.0364101,-0.08066 -0.0805548,-0.08066l0 5.26158e-005z"/>
       <path id="_471546904" class="fil1" d="M2.56449 2.88145l0 -1.60236 -0.897099 0 0 1.60236 0.897099 0zm0.060666 0.060666l0 -1.72369 -1.01838 0 0 1.72369 1.01838 0z"/>
       <path id="_471549232" class="fil1" d="M2.11589 3.1581c0.0139958,0 0.0252556,-0.0111545 0.0252556,-0.0251503 0,-0.0140484 -0.0112072,-0.025203 -0.0252556,-0.025203 -0.0139958,0 -0.0250451,0.0112598 -0.0250451,0.025203 0,0.0138906 0.0110493,0.0251503 0.0250451,0.0251503zm0 0.0455126c-0.0389883,0 -0.0705578,-0.0316221 -0.0705578,-0.070663 0,-0.0391461 0.0316221,-0.0706104 0.0705578,-0.0706104 0.0391988,0 0.070663,0.0315169 0.070663,0.0706104 5.26158e-005,0.0390409 -0.0315169,0.070663 -0.070663,0.070663z"/>
       <path id="_270635976" class="fil1" d="M1.9492 1.09088l0 -0.0504059c0,-0.00284125 0.0125752,-0.00510373 0.0280968,-0.00510373l0.277338 0c0.0155217,0 0.0280968,0.00226248 0.0280968,0.00510373l0 0.0504059c0,0.00284125 -0.0125752,0.00510373 -0.0280968,0.00510373l-0.27739 0c-0.015469,0 -0.0280442,-0.00226248 -0.0280442,-0.00510373z"/>
      </g>
      <path id="_471547144" class="fil2" d="M2.36939 1.93174c0.027255,0.0157321 0.0435659,0.0440394 0.0435659,0.0755036 0,0.0314116 -0.0163109,0.0597189 -0.0435659,0.0753984 -0.139905,0.0808705 -0.279758,0.161583 -0.419716,0.242348 -0.0133118,0.00762929 -0.0282021,0.0117859 -0.0435659,0.0117859 -0.0154164,0 -0.0303067,-0.00415665 -0.0436185,-0.0117859 -0.027255,-0.0157847 -0.0436185,-0.044092 -0.0436185,-0.075451l0 -0.484697c0,-0.0314116 0.0163635,-0.0597715 0.0436185,-0.075451 0.0133118,-0.0076819 0.0282021,-0.0117859 0.0436711,-0.0117859 0.0152586,0 0.0302541,0.00415665 0.0434606,0.0117859l0.419769 0.242348 0 0 0 0zm-0.142273 0.177578l-0.0680848 -0.0680848 -0.246926 0.246978c0.0046828,-0.000789237 0.00920776,-0.00236771 0.0135223,-0.00484065 0.100496,-0.0580352 0.200992,-0.116018 0.301488,-0.174053l0 0zm-0.0680322 -0.136117l0.0680848 -0.0680848 -0.301488 -0.174c-0.00431449,-0.00252556 -0.00894468,-0.00415665 -0.0135749,-0.00489327 0.0822911,0.0822385 0.164635,0.164582 0.246978,0.246926l0 5.26158e-005zm-0.289755 -0.22167c-0.00152586,0.00426188 -0.00226248,0.00878684 -0.00226248,0.0133644l0 0.484644c0,0.00463019 0.000736621,0.00910253 0.00226248,0.0133644l0.255713 -0.25566c-0.0852376,-0.0852376 -0.170423,-0.170475 -0.255713,-0.255713l0 0zm0.400932 0.178578l-0.0771347 0.0771347 0.0771347 0.0771873 0.0750827 -0.043408c0.0122595,-0.00705051 0.0195731,-0.0195731 0.0195731,-0.0337793 0,-0.0141536 -0.00731359,-0.0267814 -0.0195731,-0.0338319l-0.0750827 -0.0433028z"/>
     </g>
    </g>
   </g>
  </g>
 </g>
</svg>
