<?xml version="1.0" encoding="UTF-8"?>
<!DOCTYPE svg PUBLIC "-//W3C//DTD SVG 1.1//EN" "http://www.w3.org/Graphics/SVG/1.1/DTD/svg11.dtd">
<!-- Creator: CorelDRAW -->
<svg xmlns="http://www.w3.org/2000/svg" xml:space="preserve" width="75px" height="75px" style="shape-rendering:geometricPrecision; text-rendering:geometricPrecision; image-rendering:optimizeQuality; fill-rule:evenodd; clip-rule:evenodd"
viewBox="0 0 4.43293 4.43293"
 xmlns:xlink="http://www.w3.org/1999/xlink">
 <defs>
  <style type="text/css">
   <![CDATA[
    .fil1 {fill:none}
    .fil0 {fill:#BDBFC1}
   ]]>
  </style>
 </defs>
 <g id="Layer_x0020_1">
  <metadata id="CorelCorpID_0Corel-Layer"/>
  <path class="fil0" d="M1.67516 1.83474l-0.68323 0c-0.0392332,0 -0.0682741,0.0166846 -0.0682741,0.0682741l0 1.72982c0,0.0375577 0.0306466,0.0682741 0.0682741,0.0682741l2.16397 0c0.0376275,0 0.0682043,-0.0306466 0.0682043,-0.0682741l0 -0.434706 0.0458651 0c0.0376275,0 0.0682741,-0.0307164 0.0682741,-0.0682741l0 -0.400849c0,-0.0375577 -0.0306466,-0.0683439 -0.0682741,-0.0683439l-0.0458651 0 0 -0.427865c0,-0.0375577 -0.0307862,-0.0682741 -0.0682043,-0.0682741l-0.0529857 0 0.394496 -0.717157c0.0215713,-0.0391634 0.0156374,-0.0780475 -0.0358125,-0.10632l-1.08848 -0.597294c-0.0459349,-0.0252712 -0.0814682,-0.00851681 -0.107228,0.0374181l-0.590731 1.05357zm0.604065 0.329782l0.582843 -1.07242 0.563506 0.320148 -0.413833 0.752272 -0.732515 0zm-0.0945924 0l-0.217179 0 0.649791 -1.19577 0.167334 0.0918698 -0.599946 1.1039zm-0.311701 0l-0.277006 0 0.74201 -1.34901 0.20182 0.121679 -0.666824 1.22733zm-0.232048 -0.247406l-0.136129 0.247406 -0.498792 0 0 -0.247406 0.634921 0zm1.50084 0.72365l-0.248803 0c-0.0948717,0 -0.192606,0.0976641 -0.192606,0.192536l0 0.188277c0,0.0970358 0.0992697,0.196515 0.196445,0.196515l0.244963 0 0 0.400639 -2.13576 0 0 -1.37183 2.13576 0 0 0.393868zm0.114209 0.494952l-0.359172 0c-0.0625497,0 -0.114069,-0.0515197 -0.114069,-0.114139l0 -0.188277c0,-0.0605252 0.0497047,-0.11023 0.11023,-0.11023l0.363012 0 0 0.412646z"/>
  <rect class="fil1" x="1.24956e-005" y="1.24956e-005" width="4.4329" height="4.4329"/>
 </g>
</svg>
