<?xml version="1.0" encoding="utf-8"?>
<!-- Generator: Adobe Illustrator 16.0.0, SVG Export Plug-In . SVG Version: 6.00 Build 0)  -->
<!DOCTYPE svg PUBLIC "-//W3C//DTD SVG 1.0//EN" "http://www.w3.org/TR/2001/REC-SVG-20010904/DTD/svg10.dtd">
<svg version="1.0" id="Layer_1" xmlns="http://www.w3.org/2000/svg" xmlns:xlink="http://www.w3.org/1999/xlink" x="0px" y="0px"
	 width="61.955px" height="61.951px" viewBox="0 0 61.955 61.951" enable-background="new 0 0 61.955 61.951" xml:space="preserve">
<g>
	<polygon fill="#FFD712" points="29.613,28.288 23.304,30.831 21.562,33.185 21.562,44.11 41.996,44.11 41.996,33.691 40.49,30.925 
		34.039,28.288 31.778,30.831 	"/>
	<path fill="#004CD2" d="M39.99,30.11c0-0.012,0-0.012-0.01-0.012l-5.538-2.146v-1.3c0.883-0.678,1.49-1.695,1.649-2.849
		c0.43-0.035,0.837-0.204,1.175-0.485c0.431-0.374,0.679-0.915,0.679-1.493c0-0.474-0.169-0.926-0.474-1.287v-1.718
		c0-3.165-2.577-5.74-5.743-5.74c-3.175,0-5.751,2.575-5.751,5.74v1.762c-0.305,0.351-0.475,0.793-0.475,1.243
		c0,0.578,0.25,1.119,0.678,1.493c0.339,0.282,0.747,0.451,1.187,0.485c0.147,1.177,0.78,2.227,1.741,2.917v1.232l-5.537,2.146
		c-0.014,0-0.014,0-0.014,0.012c-0.099,0.034-2.449,1.028-2.449,3.774v9.65c0,0.656,0.529,1.187,1.186,1.187h4.667
		c0.26,0,0.463-0.203,0.463-0.463c0-0.259-0.203-0.462-0.463-0.462h-1.242v-9.132c0-0.25-0.216-0.462-0.465-0.462
		c-0.258,0-0.463,0.213-0.463,0.462v9.132h-2.497c-0.136,0-0.26-0.114-0.26-0.261v-9.65c0-2.091,1.762-2.872,1.876-2.915
		l3.321-1.301l1.47,2.939c0.137,0.271,0.419,0.44,0.724,0.44c0.293,0,0.451-0.136,0.668-0.282l0.371,0.564l-1.39,8.182
		c0,0.011,0,0.011,0,0.011c-0.034,0.249,0.046,0.498,0.203,0.666l1.446,1.606H28.87c-0.248,0-0.463,0.203-0.463,0.462
		c0,0.261,0.215,0.463,0.463,0.463h12.386c0.655,0,1.187-0.53,1.187-1.187v-9.65C42.442,31.138,40.093,30.144,39.99,30.11z
		 M35.447,29.341l-1.367,2.723c-0.033-0.022-0.757-0.532-1.638-1.163c0.385-0.477-0.067,0.077,1.683-2.079L35.447,29.341z
		 M32.7,32.223l-0.349,0.531H31.2l-0.352-0.531l0.926-0.657L32.7,32.223z M30.034,28.109v-0.871
		c0.555,0.227,1.166,0.329,1.752,0.329c0.6,0,1.198-0.126,1.729-0.363v0.904l-1.741,2.147L30.034,28.109z M37.019,21.825
		c0,0.307-0.125,0.59-0.361,0.792c-0.147,0.124-0.328,0.213-0.531,0.249v-2.069C36.657,20.876,37.019,21.317,37.019,21.825z
		 M27.323,22.866c-0.531-0.09-0.895-0.544-0.895-1.042c0-0.496,0.408-0.893,0.895-1.005V22.866z M27.357,19.871
		c-0.16,0.022-0.316,0.056-0.453,0.102v-1.154c0-2.655,2.17-4.814,4.824-4.814c2.657,0,4.815,2.159,4.815,4.814v1.119
		c-0.136-0.045-0.271-0.067-0.418-0.081c0-0.451,0-0.36-1.456-1.931c-0.272-0.295-0.714-0.351-1.053-0.135
		c-1.616,1.061-3.594,1.593-5.401,1.458C27.809,19.216,27.447,19.487,27.357,19.871z M28.25,23.227v-3.039
		c1.999,0.113,4.102-0.486,5.797-1.572c0.666,0.724,1.04,1.096,1.151,1.242v3.369c0,1.877-1.536,3.414-3.412,3.414
		C29.675,26.641,28.25,25,28.25,23.227z M29.47,32.064l-1.368-2.723l1.323-0.51l1.672,2.07
		C30.249,31.511,29.548,32.008,29.47,32.064z M30.001,41.613l1.332-7.922h0.871l1.346,7.922l-1.775,1.954L30.001,41.613z
		 M41.517,43.534c0,0.147-0.114,0.261-0.261,0.261H38.77v-9.132c0-0.25-0.213-0.462-0.462-0.462c-0.262,0-0.463,0.213-0.463,0.462
		v9.132h-5.018l1.445-1.606c0.158-0.168,0.237-0.417,0.203-0.666c0,0,0,0,0-0.011l-1.389-8.182l0.372-0.564
		c0.214,0.146,0.373,0.282,0.666,0.282c0.306,0,0.588-0.169,0.724-0.44l1.469-2.939l3.323,1.301
		c0.123,0.043,1.876,0.836,1.876,2.915V43.534z"/>
	<polygon fill="#F4F4F4" points="32.7,32.223 32.352,32.753 31.2,32.753 30.849,32.223 31.774,31.566 	"/>
	<polygon fill="#F4F4F4" points="33.55,41.613 31.774,43.567 30.001,41.613 31.333,33.691 32.204,33.691 	"/>
</g>
</svg>
