<?xml version="1.0" encoding="utf-8"?>
<!-- Generator: Adobe Illustrator 16.0.0, SVG Export Plug-In . SVG Version: 6.00 Build 0)  -->
<!DOCTYPE svg PUBLIC "-//W3C//DTD SVG 1.0//EN" "http://www.w3.org/TR/2001/REC-SVG-20010904/DTD/svg10.dtd">
<svg version="1.0" id="Layer_1" xmlns="http://www.w3.org/2000/svg" xmlns:xlink="http://www.w3.org/1999/xlink" x="0px" y="0px"
	 width="61.955px" height="61.95px" viewBox="0 0 61.955 61.95" enable-background="new 0 0 61.955 61.95" xml:space="preserve">
<g>
	<g>
		<g>
			<path fill="#004CD2" d="M29.52,27.787h-3.563l-3.088-3.089c-0.1-0.099-0.238-0.156-0.381-0.156h-6.489
				c-0.301,0-0.542,0.242-0.542,0.541V36.44c0.002,1.491,1.21,2.703,2.705,2.705h3.243c0.303,0,0.545,0.241,0.545,0.539v5.95
				c0,0.894,0.725,1.623,1.619,1.623h1.083c0.893,0,1.624-0.729,1.624-1.623v-7.03c-0.004-2.091-1.699-3.782-3.788-3.786h-0.538
				v-4.643l1.778,1.781c0.102,0.102,0.238,0.159,0.383,0.159h5.409c1.192,0,2.162-0.97,2.162-2.165
				C31.682,28.754,30.712,27.787,29.52,27.787z M29.52,31.034h-5.183l-2.549-2.548c-0.213-0.21-0.555-0.21-0.766,0
				c-0.101,0.101-0.158,0.237-0.158,0.382v6.491c0,0.299,0.242,0.54,0.54,0.54h1.083c1.491,0.002,2.702,1.211,2.704,2.705v7.03
				c0,0.298-0.242,0.541-0.54,0.541h-1.083c-0.298,0-0.541-0.242-0.541-0.541v-5.95c0-0.893-0.726-1.621-1.623-1.621h-3.243
				c-0.898,0-1.621-0.727-1.621-1.623V25.622h5.724l3.085,3.089c0.104,0.1,0.238,0.157,0.383,0.157h3.788
				c0.595,0,1.079,0.484,1.079,1.082C30.599,30.548,30.114,31.034,29.52,31.034z"/>
		</g>
	</g>
	<g>
		<g>
			<path fill="#004CD2" d="M47.364,24.546h-6.49c-0.139,0-0.276,0.057-0.378,0.149l-3.085,3.096h-3.567
				c-1.193,0-2.157,0.963-2.157,2.156s0.964,2.17,2.157,2.17h5.413c0.137,0,0.274-0.058,0.379-0.162l1.776-1.779v4.647h-0.538
				c-2.087,0-3.786,1.685-3.786,3.783v7.031c0,0.894,0.734,1.618,1.63,1.618h1.078c0.895,0,1.616-0.724,1.616-1.618v-5.953
				c0-0.297,0.252-0.538,0.552-0.538h3.246c1.49,0,2.694-1.217,2.694-2.708V25.086C47.904,24.787,47.664,24.546,47.364,24.546z
				 M46.826,36.439c0,0.896-0.722,1.629-1.616,1.629h-3.246c-0.907,0-1.63,0.723-1.63,1.617v5.953c0,0.298-0.24,0.54-0.538,0.54
				h-1.078c-0.3,0-0.54-0.242-0.54-0.54v-7.031c0-1.502,1.204-2.707,2.696-2.707h1.09c0.297,0,0.538-0.241,0.538-0.54v-6.491
				c0-0.299-0.241-0.541-0.538-0.541c-0.15,0-0.287,0.059-0.392,0.162l-2.545,2.545h-5.184c-0.598,0-1.08-0.491-1.08-1.09
				c0-0.595,0.482-1.077,1.08-1.077h3.784c0.148,0,0.287-0.058,0.39-0.161l3.085-3.085h5.724V36.439z"/>
			<path fill="#FFD712" d="M46.826,25.625v10.814c0,0.896-0.722,1.629-1.616,1.629h-3.246c-0.907,0-1.63,0.723-1.63,1.617v5.953
				c0,0.298-0.24,0.54-0.538,0.54h-1.078c-0.3,0-0.54-0.242-0.54-0.54v-7.031c0-1.502,1.204-2.707,2.696-2.707h1.09
				c0.297,0,0.538-0.241,0.538-0.54v-6.491c0-0.299-0.241-0.541-0.538-0.541c-0.15,0-0.287,0.059-0.392,0.162l-2.545,2.545h-5.184
				c-0.598,0-1.08-0.491-1.08-1.09c0-0.595,0.482-1.077,1.08-1.077h3.784c0.148,0,0.287-0.058,0.39-0.161l3.085-3.085H46.826z"/>
		</g>
	</g>
	<g>
		<g>
			<path fill="#004CD2" d="M38.173,33.196H25.191c-0.302,0-0.54,0.241-0.54,0.541c0,0.298,0.238,0.539,0.54,0.539h5.949v11.898
				H29.52c-0.3,0-0.54,0.242-0.54,0.543c0,0.296,0.24,0.54,0.54,0.54h4.326c0.296,0,0.542-0.243,0.542-0.54
				c0-0.301-0.246-0.543-0.542-0.543h-1.624V34.276h5.951c0.297,0,0.541-0.241,0.541-0.539
				C38.714,33.437,38.47,33.196,38.173,33.196z"/>
		</g>
	</g>
	<g>
		<g>
			<path fill="#004CD2" d="M44.122,16.97h-2.704c-0.3,0-0.542,0.241-0.542,0.538v2.706c0,1.792,1.456,3.245,3.246,3.245
				c1.792,0,3.242-1.453,3.242-3.245C47.364,18.424,45.914,16.97,44.122,16.97z M43.063,22.104c-0.686-0.383-1.107-1.107-1.105-1.89
				V19.69c1.483,0.071,2.902,0.628,4.039,1.584C45.415,22.314,44.101,22.685,43.063,22.104z M41.958,18.609v-0.558h2.164
				c1.155,0.004,2.105,0.917,2.152,2.072C45.02,19.204,43.517,18.673,41.958,18.609z"/>
		</g>
	</g>
	<g>
		<g>
			<path fill="#004CD2" d="M21.949,16.97h-2.706c-1.793,0-3.245,1.453-3.245,3.244c0,1.792,1.452,3.245,3.245,3.245
				c1.789-0.002,3.242-1.453,3.244-3.245v-2.706C22.487,17.211,22.246,16.97,21.949,16.97z M21.404,20.214
				c0,1.192-0.968,2.164-2.161,2.164c-0.779-0.002-1.498-0.423-1.875-1.103c1.136-0.957,2.553-1.514,4.036-1.584V20.214z
				 M21.404,18.609c-1.557,0.064-3.059,0.592-4.316,1.514c0.048-1.155,0.998-2.068,2.155-2.072h2.161V18.609z"/>
		</g>
	</g>
</g>
</svg>
