<?xml version="1.0" encoding="UTF-8"?>
<!DOCTYPE svg PUBLIC "-//W3C//DTD SVG 1.1//EN" "http://www.w3.org/Graphics/SVG/1.1/DTD/svg11.dtd">
<!-- Creator: CorelDRAW -->
<svg xmlns="http://www.w3.org/2000/svg" xml:space="preserve" width="95px" height="95px" style="shape-rendering:geometricPrecision; text-rendering:geometricPrecision; image-rendering:optimizeQuality; fill-rule:evenodd; clip-rule:evenodd"
viewBox="0 0 13.473 13.473"
 xmlns:xlink="http://www.w3.org/1999/xlink">
 <defs>
  <style type="text/css">
   <![CDATA[
    .fil0 {fill:#FEFEFE}
    .fil2 {fill:#004CD2}
    .fil1 {fill:#FFD712}
   ]]>
  </style>
 </defs>
 <g id="Layer_x0020_1">
  <metadata id="CorelCorpID_0Corel-Layer"/>
  <g id="_765476952">
   <g id="_294931544">
    <g id="_164324960">
     <circle id="_471551128" class="fil0" cx="6.73649" cy="6.73649" r="6.73657"/>
     <g>
      <polygon id="_164327840" class="fil1" points="6.73884,2.9215 8.05746,2.9215 7.7938,3.44547 8.05746,3.94414 6.73884,3.94414 "/>
      <path id="_164327696" class="fil2" d="M3.62319 10.2394c0.0065328,-0.000335015 0.0130656,-0.000670031 0.0199334,-0.000670031 0.0286438,0 0.054775,-0.0157457 0.0685107,-0.0407044l1.73856 -3.18415c0.020771,-0.0376892 0.00703532,-0.0855965 -0.0308214,-0.106367 -0.0378567,-0.0206035 -0.0859315,-0.00670031 -0.106535,0.0313239l-0.424632 0.778408 -0.509056 -0.932181c-0.0135681,-0.0249587 -0.0400343,-0.0403694 -0.0685107,-0.0403694 -0.0284763,0 -0.054775,0.0154107 -0.0683432,0.0403694l-0.934023 1.71059c-0.0206035,0.0378567 -0.00670031,0.0850939 0.0313239,0.105865 0.00603028,0.00335015 0.011558,0.00670031 0.0170858,0.010218 0.00670031,-0.000335015 0.0132331,-0.000670031 0.0201009,-0.000670031 0.0288113,0 0.054775,-0.0154107 0.0688457,-0.0407044l0.170523 -0.312737 0.183253 0.183253c0.0304864,0.0304864 0.0802362,0.0303189 0.11089,0l0.10754 -0.10754 0.237861 0.237693c0.0145732,0.0147407 0.0341716,0.0231161 0.0716933,0.0216085l0.0936368 -0.0206035 -0.846417 1.55062c-0.020771,0.0378567 -0.00720283,0.0855965 0.0308214,0.1062 0.00636529,0.00351766 0.0120606,0.00686782 0.0179233,0.0103855l-0.000167508 0.000167508 0 0zm1.02816 -2.08899l-0.0296489 -0.00335015c-0.0259637,-0.00284763 -0.0542725,0.00167508 -0.0732009,0.020771l-0.237861 0.237693 -0.237693 -0.237693c-0.0304864,-0.0306539 -0.0804037,-0.0304864 -0.11089,0l-0.10754 0.107707 -0.160137 -0.160472 0.616261 -1.129 0.48795 0.894491 -0.147239 0.269855 0 0 0 0zm-1.94041 1.64375c0.00670031,-0.000335015 0.0132331,-0.000670031 0.0201009,-0.000670031 0.0288113,0 0.0552776,-0.0155782 0.0688457,-0.0405369l0.372202 -0.681589c0.020771,-0.0380243 0.00720283,-0.0852614 -0.0311564,-0.1062 -0.0378567,-0.0206035 -0.0850939,-0.00670031 -0.105865,0.0311564l-0.37237 0.681421c-0.00485772,0.00854289 -0.00737034,0.00820788 -0.0125631,0.0164158 0.000335015,0.00938043 0.00301514,0.010888 0.00301514,0.0202684l0 0.00167508c0,0.0283088 0.0159132,0.0546075 0.0408719,0.0680081 0.00586277,0.00335015 0.0113905,0.00670031 0.0169183,0.0100505l0 0 0 0zm8.05076 -0.667518c0.00586277,-0.00335015 0.0113905,-0.00686782 0.0174208,-0.0100505 0.0246236,-0.0135681 0.0407044,-0.0393643 0.0407044,-0.0676731l0 -0.00234511c0,-0.00921293 0.00284763,-0.0107205 0.00284763,-0.0197659 -0.00519274,-0.00820788 -0.00770536,-0.00804037 -0.0123956,-0.0162482l-1.11292 -2.03874c-0.0206035,-0.0378567 -0.0685107,-0.0517599 -0.106535,-0.0309889 -0.0378567,0.0202684 -0.0514249,0.0683432 -0.0309889,0.105865l0.218765 0.400511 -0.160137 0.160472 -0.10754 -0.107707c-0.0304864,-0.0306539 -0.0804037,-0.0303189 -0.11089,0l-0.237693 0.238196 -0.237861 -0.238028c-0.0304864,-0.0304864 -0.0800687,-0.0304864 -0.110388,0l-0.10754 0.107372 -0.160807 -0.160305 0.616596 -1.12883 0.123621 0.226638c0.0206035,0.0378567 0.0686782,0.0515924 0.106032,0.0311564 0.0378567,-0.020771 0.0520949,-0.0683432 0.0311564,-0.106032l-0.192634 -0.352771c-0.0135681,-0.0249587 -0.0398668,-0.0403694 -0.0683432,-0.0403694 -0.0284763,0 -0.0549425,0.0155782 -0.0685107,0.0403694l-0.691137 1.26569 -1.58814 -2.9086 0 -0.471367 1.32214 0c0.0289788,0 0.0549425,-0.0164158 0.0688457,-0.0418769 0.0132331,-0.0252937 0.011558,-0.0564501 -0.00452271,-0.0800687l-0.312067 -0.461316 0.312067 -0.460814c0.0159132,-0.0237861 0.0184259,-0.0552776 0.00485772,-0.0805712 -0.0135681,-0.0254612 -0.0402019,-0.0415419 -0.0691807,-0.0415419l-1.40036 0c-0.0430495,0 -0.0780586,0.0351766 -0.0780586,0.0783936l0 1.55933 -1.07205 1.96403c-0.0206035,0.0378567 -0.00720283,0.0854289 0.0306539,0.106367 0.0381918,0.020771 0.0855965,0.00670031 0.106367,-0.0313239l0.318767 -0.584099 0.183253 0.183253c0.0304864,0.0306539 0.0800687,0.0304864 0.110555,0l0.107707 -0.107205 0.237861 0.237358c0.0145732,0.0149082 0.0343391,0.0229486 0.05511,0.0229486 0.020771,0 0.0407044,-0.00804037 0.0552776,-0.0229486l0.237861 -0.237358 0.107372 0.107372c0.0304864,0.0304864 0.0802362,0.0306539 0.11089,0.000167508l0.183086 -0.183588 2.33054 4.26843c0.0135681,0.0249587 0.0398668,0.0407044 0.0685107,0.0407044 0.00686782,0 0.0134006,0.000335015 0.0201009,0.000670031 0.00569526,-0.00351766 0.0113905,-0.00703532 0.0174208,-0.0103855 0.0375217,-0.0209385 0.0519274,-0.0676731 0.0309889,-0.105865l-1.27122 -2.32886 0.076216 0.0021776c0.0216085,0.000670031 0.0433845,-0.00720283 0.0586277,-0.0226135l0.107205 -0.108042 0.238028 0.238028c0.0144057,0.0147407 0.0345066,0.0229486 0.05511,0.0229486 0.020771,0 0.0407044,-0.00820788 0.05511,-0.0229486l0.237861 -0.238028 0.10754 0.10821c0.0304864,0.0303189 0.0800687,0.0303189 0.110555,-0.000167508l0.183421 -0.183588 0.816265 1.49517c0.0137356,0.0251262 0.0400343,0.0407044 0.0688457,0.0407044 0.00670031,0 0.0132331,0.000167508 0.0197659,0.000502523l0 -0.000167508 0 0.000167508zm-2.77259 -6.13279l-0.259134 0.38242c-0.0177558,0.0264662 -0.0177558,0.0611403 0,0.0872715l0.258967 0.38309 -1.1744 0 0 -0.852782 1.17456 0 0 0 0 0zm-0.796834 2.95316l-0.10754 -0.107372c-0.0304864,-0.0306539 -0.0800687,-0.0306539 -0.110555,-0.000167508l-0.237693 0.237861 -0.237693 -0.237861c-0.0304864,-0.0304864 -0.0800687,-0.0304864 -0.110555,0.000167508l-0.10754 0.107372 -0.160305 -0.160137 0.616093 -1.12883 0.616093 1.12883 -0.160305 0.160137z"/>
      <path id="_164322536" class="fil2" d="M5.48102 9.6533c-0.0378567,-0.0206035 -0.087104,-0.00837539 -0.10687,0.0309889l-0.232166 0.462824c-0.0472372,0.0943069 0.0974895,0.153772 0.137189,0.0747084l0.232501 -0.462824c0.0190959,-0.0378567 0.00753785,-0.0849264 -0.0306539,-0.105697l0 0z"/>
      <path id="_164325368" class="fil2" d="M8.17488 10.2667c0.00569526,-0.00368517 0.011558,-0.00703532 0.0175883,-0.0103855 0.0383593,-0.0204359 0.0517599,-0.0680081 0.0313239,-0.106032l-1.47038 -2.73959c-0.0391968,-0.0732009 -0.115413,-0.0726984 -0.15528,0l-1.07289 1.9652c-0.0206035,0.0376892 -0.00636529,0.0852614 0.0314915,0.105697 0.0376892,0.020771 0.0852614,0.00720283 0.105865,-0.0308214l0.318935 -0.584267 0.183253 0.183086c0.0306539,0.0309889 0.0797337,0.0309889 0.110555,0.000335015l0.107372 -0.107707 0.237693 0.237693c0.0147407,0.0147407 0.0346741,0.0231161 0.0554451,0.0231161 0.0209385,0 0.0407044,-0.00837539 0.0552776,-0.0231161l0.237861 -0.237693 0.107372 0.107707c0.0306539,0.0304864 0.0799012,0.0309889 0.110723,0.000335015l0.182918 -0.183756 0.716766 1.35832c0.0134006,0.0254612 0.0398668,0.0412069 0.0685107,0.0412069 0.00670031,0 0.0130656,0.000335015 0.0195984,0.000670031l0 0 0 0zm-1.04307 -1.38244l-0.107707 -0.107875c-0.0303189,-0.0304864 -0.0800687,-0.0304864 -0.110388,0.000167508l-0.237861 0.237526 -0.237526 -0.237693c-0.0306539,-0.0306539 -0.0800687,-0.0306539 -0.110723,0l-0.10754 0.107707 -0.160305 -0.160472 0.616093 -1.12883 0.616093 1.12883 -0.160137 0.16064 0 0z"/>
     </g>
    </g>
   </g>
  </g>
 </g>
</svg>
