<?xml version="1.0" encoding="UTF-8"?>
<!DOCTYPE svg PUBLIC "-//W3C//DTD SVG 1.1//EN" "http://www.w3.org/Graphics/SVG/1.1/DTD/svg11.dtd">
<!-- Creator: CorelDRAW -->
<svg xmlns="http://www.w3.org/2000/svg" xml:space="preserve" width="95px" height="95px" style="shape-rendering:geometricPrecision; text-rendering:geometricPrecision; image-rendering:optimizeQuality; fill-rule:evenodd; clip-rule:evenodd"
viewBox="0 0 12.8043 12.8043"
 xmlns:xlink="http://www.w3.org/1999/xlink">
 <defs>
  <style type="text/css">
   <![CDATA[
    .fil1 {fill:#004CD2}
    .fil2 {fill:#FFD712}
    .fil0 {fill:#FEFEFE;fill-rule:nonzero}
   ]]>
  </style>
 </defs>
 <g id="Layer_x0020_1">
  <metadata id="CorelCorpID_0Corel-Layer"/>
  <g id="_765492840">
   <path id="_282683176" class="fil0" d="M12.8043 6.40182c0,3.53624 -2.86669,6.40245 -6.40261,6.40245 -3.53529,0 -6.40166,-2.86621 -6.40166,-6.40245 0,-3.53545 2.86621,-6.40182 6.40166,-6.40182 3.53608,0 6.40261,2.86621 6.40261,6.40182z"/>
   <g id="_464056576">
    <path id="_638797944" class="fil1" d="M4.64006 5.96134c0.363908,0 0.660001,-0.296411 0.660001,-0.660956 0,-0.363749 -0.296093,-0.66016 -0.660001,-0.66016 -0.364704,0 -0.661115,0.296093 -0.661115,0.66016 0,0.364704 0.296411,0.660956 0.661115,0.660956l0 0zm0 -1.10112c0.242764,0 0.440319,0.197714 0.440319,0.44016 0,0.243083 -0.197555,0.440956 -0.440319,0.440956 -0.243401,0 -0.441115,-0.197873 -0.441115,-0.440956 0,-0.242446 0.197555,-0.44016 0.441115,-0.44016l0 0zm0 0z"/>
    <path id="_638797920" class="fil1" d="M8.16357 5.96134c0.364545,0 0.660638,-0.296411 0.660638,-0.660956 0,-0.363749 -0.296093,-0.66016 -0.660638,-0.66016 -0.364067,0 -0.660797,0.296093 -0.660797,0.66016 0,0.364704 0.29673,0.660956 0.660797,0.660956l0 0zm0 -1.10112c0.243242,0 0.44016,0.197714 0.44016,0.44016 0,0.243083 -0.196918,0.440956 -0.44016,0.440956 -0.243242,0 -0.440319,-0.197873 -0.440319,-0.440956 0.00015919,-0.242446 0.197236,-0.44016 0.440319,-0.44016l0 0zm0 0z"/>
    <path id="_638798184" class="fil1" d="M9.26453 6.18198l0 1.43143c0,0.182113 -0.14741,0.330796 -0.329682,0.330796l0 -1.21159c0,-0.303734 -0.247381,-0.550478 -0.550797,-0.550478l-0.550319 -0.00015919c-0.0611289,0 -0.110319,0.049508 -0.110319,0.110319l0 0.66016 -0.880956 0c-0.0606513,0 -0.11,0.049508 -0.11,0.110478l0 0.330796 -0.660797 0 0 -0.330796c0,-0.0609697 -0.0498264,-0.110478 -0.110478,-0.110478l-0.880797 0 0 -0.66016c0,-0.0608105 -0.0496672,-0.110319 -0.110637,-0.110319l-0.55016 0c-0.303734,0 -0.550797,0.246744 -0.550797,0.550637l0 1.21143c-0.182431,0 -0.33016,-0.148524 -0.33016,-0.330796l0 -1.43128 -0.22 0 0 1.43143c0,0.225413 0.135948,0.418828 0.33,0.503836l0 1.3684 0.220159 0 0 -1.32159 1.10127 0 0 1.21159c0,0.0608105 0.049508,0.110159 0.110478,0.110159l0.550637 0 0 -1.87223 1.54175 0 0 1.87223 0.550797 0c0.0606513,0 0.110319,-0.0493488 0.110319,-0.110159l0 -1.21159 1.10127 0 0 1.32159 0.219841 0 0 -1.3684c0.194212,-0.0850073 0.330637,-0.278423 0.330637,-0.503836l0 -1.43143 -0.221115 0 -0.00015919 0zm-3.74414 1.21159l-0.880479 0 0 -0.660956 -0.220478 0 0 0.770479c0,0.0606513 0.0491896,0.110319 0.110159,0.110319l0.770479 0c0.0608105,0 0.110478,0.049508 0.110478,0.110319l0 1.54159 -0.219682 0 0 -1.21159c0,-0.0608105 -0.049508,-0.109682 -0.110478,-0.109682l-0.990956 0.00015919 0 -1.21159c0,-0.182113 0.148046,-0.330796 0.330319,-0.330796l0.440001 0 0 0.660956c0,0.0608105 0.049508,0.110159 0.110319,0.110159l0.880797 0 0 0.220637 -0.330478 0zm2.20303 0.550637c-0.0611289,0 -0.110319,0.0487121 -0.110319,0.109523l0 1.21175 -0.220159 -0.00015919 0 -1.54159c0,-0.0609697 0.0493488,-0.110319 0.11,-0.110319l0.771115 0c0.0608105,0 0.110159,-0.0496672 0.110159,-0.110319l0 -0.770479 -0.220159 0 0 0.660956 -1.21159 0 0 -0.220637 0.881593 0c0.0606513,0 0.110319,-0.049508 0.110319,-0.110159l0 -0.660956 0.440001 0c0.182591,0 0.33,0.148683 0.33,0.330796l0 1.21159 -0.990956 0 0 0zm0 0z"/>
    <path id="_638802048" class="fil1" d="M5.41038 4.41974l0 0.330319c0,0.0479161 0.0304052,0.0899422 0.0751376,0.104906 0.0120984,0.00382055 0.0232417,0.00541245 0.0350218,0.00541245 0.0340666,0 0.0668597,-0.0157598 0.0881911,-0.0442548l0.297207 -0.396064 0.826195 0c0.182431,0 0.330319,-0.148524 0.330319,-0.33016l0 -0.441274c0,-0.181795 -0.147887,-0.33 -0.330319,-0.33l-1.32175 0c-0.182272,0 -0.330319,0.148365 -0.330319,0.33l0 0.441274c0,0.181476 0.148046,0.329841 0.330319,0.329841l0 0 0 0zm-0.110319 -0.771115c0,-0.0601737 0.049508,-0.109682 0.110478,-0.109682l1.32175 0c0.0608105,0 0.110159,0.049508 0.110159,0.109682l0 0.441115c0,0.0601737 -0.0493488,0.109523 -0.110159,0.109523l-0.881434 0c-0.0345442,0 -0.0670189,0.0168741 -0.0875544,0.0440956l-0.132128 0.176382 0 -0.110319c0,-0.0606513 -0.049508,-0.110159 -0.110478,-0.110159l-0.110159 0c-0.0608105,0 -0.110478,-0.049508 -0.110478,-0.109682l0 -0.440956 0 0zm0 0z"/>
    <rect id="_638805648" class="fil1" x="6.2921" y="6.07168" width="0.659935" height="0.220471"/>
    <path id="_638805312" class="fil1" d="M6.1815 5.63134c-0.182113,0 -0.330956,0.147887 -0.330956,0.330319l0 0.440478c0,0.182272 0.148842,0.330796 0.330956,0.330796l0.880797 -0.00015919c0.182431,0 0.330319,-0.148365 0.330319,-0.330796l0 -0.0760927 0.202012 -0.302938c0.0221274,-0.0340666 0.0246744,-0.0775254 0.00525326,-0.113025 -0.0198987,-0.0359769 -0.0565124,-0.058741 -0.0971058,-0.058741l-0.128625 0c-0.0453691,-0.127829 -0.168264,-0.219841 -0.311694,-0.219841l-0.880956 0.00015919 0 -0.00031838 0 0.00015919zm0.990956 0.33c0,0.0609697 0.049508,0.110319 0.110159,0.110319l0.0144863 0 -0.106339 0.15919c-0.01178,0.0181476 -0.0183068,0.0393199 -0.0183068,0.0612881l0 0.109682c0,0.0608105 -0.049508,0.110159 -0.11,0.110159l-0.880956 0c-0.0608105,0 -0.11,-0.049508 -0.11,-0.110159l0 -0.440478c0,-0.0606513 0.0491896,-0.110319 0.11,-0.110319l0.880797 0c0.0604921,0 0.110159,0.0498264 0.110159,0.110319l0 0 0 0zm0 0z"/>
    <rect id="_638806320" class="fil1" x="5.85065" y="5.08058" width="0.220878" height="0.220012"/>
    <rect id="_638806776" class="fil1" x="6.29215" y="5.08058" width="0.219656" height="0.220012"/>
    <rect id="_638807256" class="fil1" x="6.73243" y="5.08058" width="0.219656" height="0.220012"/>
    <rect id="_638807712" class="fil1" x="5.52046" y="3.75888" width="1.10144" height="0.220471"/>
    <path id="_638805984" class="fil2" d="M5.30006 3.64863c0,-0.0601737 0.049508,-0.109682 0.110478,-0.109682l1.32175 0c0.0608105,0 0.110159,0.049508 0.110159,0.109682l0 0.441115c0,0.0601737 -0.0493488,0.109523 -0.110159,0.109523l-0.881434 0c-0.0345442,0 -0.0670189,0.0168741 -0.0875544,0.0440956l-0.132128 0.176382 0 -0.110319c0,-0.0606513 -0.049508,-0.110159 -0.110478,-0.110159l-0.110159 0c-0.0608105,0 -0.110478,-0.049508 -0.110478,-0.109682l0 -0.440956 0 0z"/>
    <path id="_638804928" class="fil2" d="M7.17245 5.96134c0,0.0609697 0.049508,0.110319 0.110159,0.110319l0.0144863 0 -0.106339 0.15919c-0.01178,0.0181476 -0.0183068,0.0393199 -0.0183068,0.0612881l0 0.109682c0,0.0608105 -0.049508,0.110159 -0.11,0.110159l-0.880956 0c-0.0608105,0 -0.11,-0.049508 -0.11,-0.110159l0 -0.440478c0,-0.0606513 0.0491896,-0.110319 0.11,-0.110319l0.880797 0c0.0604921,0 0.110159,0.0498264 0.110159,0.110319l0 0 0 0z"/>
    <rect id="_638809200" class="fil1" x="6.2921" y="6.07168" width="0.659935" height="0.220471"/>
   </g>
  </g>
 </g>
</svg>
